<svg width="206" height="202" viewBox="0 0 206 202" fill="none" xmlns="http://www.w3.org/2000/svg">
<path d="M145.008 34.4165C145.008 34.4165 131.024 70.1001 185.342 102.972C233.581 132.165 184.332 181.072 156.426 189.21C120.275 199.752 79.9806 167.995 61.667 194.118C43.3533 220.241 -12.309 173.51 12.884 132.713C44.2227 81.9628 6.87515 81.1788 0.622332 59.0728C-3.86537 43.2075 26.3433 -0.517317 61.8943 13.1841C91.8099 24.7132 97.1455 12.3014 104.319 4.99196C114.664 -5.55018 152.896 1.7231 145.008 34.4165Z" fill="#CCE2CC"/>
<path d="M83.9732 152.27C74.9408 151.86 64.6767 141.048 69.1929 138.174C73.7092 135.301 73.1617 129.279 71.5195 128.458C61.3923 124.49 58.9288 115.594 56.7392 104.235C54.5496 92.8765 55.7812 56.7474 55.7812 56.7474L68.5086 50.3153L103.68 48.2625L113.67 64.8218C113.67 64.8218 110.008 74.7082 109.702 84.5998C112.099 82.6839 116.287 80.0454 119.418 81.9285C121.443 83.1437 122.664 85.0432 123.184 87.1673C123.857 89.9207 123.348 93.0628 121.881 95.6139C120.863 97.3874 119.669 99.1559 118.016 100.514C115.678 102.435 112.416 103.525 107.385 102.638C107.588 105.337 112.848 105.452 112.848 108.205C112.848 110.805 112.75 114.774 112.848 116.279C113.67 128.596 120.375 132.839 123.797 136.944C127.218 141.05 93.0056 152.681 83.9732 152.27Z" fill="#AACFAA"/>
<path d="M57.8355 101.36C63.3522 101.36 67.8244 96.4976 67.8244 90.4989C67.8244 84.5003 63.3522 79.6375 57.8355 79.6375C52.3188 79.6375 47.8467 84.5003 47.8467 90.4989C47.8467 96.4976 52.3188 101.36 57.8355 101.36Z" fill="#2B872B"/>
<path d="M57.8355 99.2077C62.294 99.2077 65.9083 95.3087 65.9083 90.499C65.9083 85.6893 62.294 81.7903 57.8355 81.7903C53.377 81.7903 49.7627 85.6893 49.7627 90.499C49.7627 95.3087 53.377 99.2077 57.8355 99.2077Z" fill="#D6EED6"/>
<path d="M84.179 102.182C89.5076 102.182 93.8272 97.6475 93.8272 92.0544C93.8272 86.4613 89.5076 81.9272 84.179 81.9272C78.8504 81.9272 74.5308 86.4613 74.5308 92.0544C74.5308 97.6475 78.8504 102.182 84.179 102.182Z" fill="#2B872B"/>
<path d="M84.1781 100.608C88.4199 100.608 91.8586 96.7786 91.8586 92.0547C91.8586 87.3307 88.4199 83.5012 84.1781 83.5012C79.9363 83.5012 76.4976 87.3307 76.4976 92.0547C76.4976 96.7786 79.9363 100.608 84.1781 100.608Z" fill="#D6EED6"/>
<path d="M67.3438 87.1661C67.3438 87.1661 72.3055 85.2802 75.5734 88.8384C75.5734 89.4544 75.0777 90.4991 75.0777 90.4991C75.0777 90.4991 70.695 87.0593 67.3438 89.6591C66.798 88.5829 66.4692 87.416 67.3438 87.1661Z" fill="#2B872B"/>
<path d="M93.0151 89.412L109.55 83.5012L109.392 84.9645L93.5436 91.5865L93.0151 89.412Z" fill="#2B872B"/>
<path d="M25.8486 162.274C25.4836 161.283 25.3403 160.224 25.4287 159.172C25.517 158.119 25.8349 157.099 26.36 156.183L30.6002 148.712C30.6002 148.712 31.1476 145.793 43.5557 144.059C55.9637 142.326 67.9005 139.208 69.193 138.174C69.193 138.174 91.1184 157.008 123.401 136.483C123.401 136.483 149.754 151.358 155.775 151.906C159.313 152.228 162.063 159.191 163.73 164.884C164.007 165.828 164.086 166.82 163.964 167.797C163.841 168.773 163.52 169.715 163.019 170.562C162.518 171.41 161.848 172.145 161.051 172.723C160.254 173.301 159.347 173.709 158.386 173.922C131.743 179.849 39.0981 197.67 25.8486 162.274Z" fill="#2B872B"/>
<path d="M118.017 100.512C114.891 107.952 112.756 111.082 110.249 110.804C107.632 110.514 106.806 106.282 106.981 102.56C112.242 103.583 115.619 102.483 118.017 100.512Z" fill="#559F56"/>
<path d="M123.25 86.9909C123.229 87.0511 123.207 87.1113 123.185 87.1662C122.665 85.0421 121.444 83.1426 119.419 81.9274C116.205 79.9954 111.875 82.8251 109.511 84.7575C109.959 76.1412 109.204 66.3917 104.502 64.2732C96.2904 60.5781 95.9565 61.3993 90.8547 61.673C86.0647 61.9302 74.3226 62.6692 72.3301 61.5142C73.6439 62.7462 79.8462 68.0339 89.7379 68.5156C90.8547 69.3368 90.132 70.0211 89.0379 69.8841C87.9438 69.7472 73.0259 69.4737 61.8039 55.3776C61.8039 55.3776 55.2952 67.5522 55.4374 78.5056C55.4374 78.5056 51.2654 70.2943 53.8664 58.5248C55.4374 49.7663 59.4774 50.5868 59.4774 50.5868C59.4774 50.5868 56.7392 31.0176 75.4881 32.7967C80.9621 33.481 90.2683 41.5554 96.5636 41.4185C102.859 41.2816 108.607 41.6923 108.607 41.6923C108.607 41.6923 117.502 40.3237 119.008 52.3669C119.073 54.7913 120.823 55.8839 125.577 56.4726C130.477 57.0792 129.682 69.7474 123.25 86.9909Z" fill="#559F56"/>
<path d="M168.011 191.061C180.596 191.061 190.797 180.86 190.797 168.275C190.797 155.69 180.596 145.489 168.011 145.489C155.426 145.489 145.225 155.69 145.225 168.275C145.225 180.86 155.426 191.061 168.011 191.061Z" fill="#559F56" stroke="white" stroke-width="15" stroke-miterlimit="10"/>
<path d="M176.79 166.366H170.301C170.251 166.366 170.201 166.357 170.155 166.337C170.109 166.318 170.067 166.29 170.031 166.255C169.996 166.219 169.968 166.177 169.949 166.131C169.929 166.085 169.919 166.035 169.919 165.985V159.496C169.915 158.993 169.712 158.512 169.355 158.157C168.997 157.803 168.514 157.604 168.011 157.604C167.508 157.604 167.025 157.803 166.667 158.157C166.31 158.512 166.107 158.993 166.103 159.496V165.985C166.103 166.086 166.062 166.183 165.991 166.255C165.919 166.326 165.822 166.366 165.721 166.366H159.233C158.726 166.366 158.241 166.568 157.883 166.925C157.525 167.283 157.324 167.769 157.324 168.275C157.324 168.781 157.525 169.266 157.883 169.624C158.241 169.982 158.726 170.183 159.233 170.183H165.721C165.771 170.183 165.821 170.193 165.867 170.212C165.913 170.231 165.955 170.26 165.991 170.295C166.026 170.33 166.054 170.373 166.074 170.419C166.093 170.465 166.103 170.515 166.103 170.565V177.054C166.107 177.557 166.31 178.038 166.667 178.393C167.025 178.747 167.508 178.946 168.011 178.946C168.514 178.946 168.997 178.747 169.355 178.393C169.712 178.038 169.915 177.557 169.919 177.054V170.565C169.919 170.515 169.929 170.465 169.948 170.419C169.968 170.373 169.996 170.33 170.031 170.295C170.067 170.26 170.109 170.231 170.155 170.212C170.201 170.193 170.251 170.183 170.301 170.183H176.79C177.296 170.183 177.781 169.982 178.139 169.624C178.497 169.266 178.698 168.781 178.698 168.275C178.698 167.769 178.497 167.283 178.139 166.925C177.781 166.568 177.296 166.366 176.79 166.366Z" fill="white"/>
</svg>
