<svg width="23" height="14" viewBox="0 0 23 14" fill="none" xmlns="http://www.w3.org/2000/svg">
<g clip-path="url(#clip0)">
<path fill-rule="evenodd" clip-rule="evenodd" d="M8.33984 12.4855H14.4287V1.49463H8.33984V12.4855Z" fill="#FF5F00"/>
<path fill-rule="evenodd" clip-rule="evenodd" d="M8.72577 6.98991C8.72577 4.76013 9.76513 2.77422 11.3836 1.49448C10.1999 0.558416 8.70644 0 7.08313 0C3.24018 0 0.125 3.12954 0.125 6.98991C0.125 10.8503 3.24018 13.9798 7.08313 13.9798C8.70644 13.9798 10.1999 13.4214 11.3836 12.4853C9.76513 11.2054 8.72577 9.2197 8.72577 6.98991Z" fill="#EB001B"/>
<path fill-rule="evenodd" clip-rule="evenodd" d="M22.4242 11.3213V11.0501H22.3536L22.2726 11.2367L22.1914 11.0501H22.1209V11.3213H22.1706V11.1167L22.2467 11.2932H22.2983L22.3745 11.1163V11.3213H22.4242ZM21.9774 11.3213V11.0963H22.0679V11.0505H21.8379V11.0963H21.9282V11.3213H21.9774ZM22.6414 6.98991C22.6414 10.8503 19.526 13.9798 15.6833 13.9798C14.06 13.9798 12.5664 13.4214 11.3828 12.4853C13.0013 11.2056 14.0407 9.2197 14.0407 6.98991C14.0407 4.76033 13.0013 2.77441 11.3828 1.49448C12.5664 0.558416 14.06 0 15.6833 0C19.526 0 22.6414 3.12954 22.6414 6.98991Z" fill="#F79E1B"/>
</g>
<defs>
<clipPath id="clip0">
<rect width="22.75" height="14" fill="white" transform="translate(0.125)"/>
</clipPath>
</defs>
</svg>
