<svg width="25" height="10" viewBox="0 0 25 10" fill="none" xmlns="http://www.w3.org/2000/svg">
<g clip-path="url(#clip0)">
<path fill-rule="evenodd" clip-rule="evenodd" d="M8.67729 5.00323C8.67729 7.38102 6.74972 9.30859 4.37193 9.30859C1.99403 9.30859 0.0664063 7.38102 0.0664063 5.00323C0.0664063 2.62544 1.99403 0.697868 4.37193 0.697868C6.74972 0.697868 8.67729 2.62544 8.67729 5.00323Z" fill="#ED342B"/>
<path fill-rule="evenodd" clip-rule="evenodd" d="M4.37202 6.84768C3.40899 4.66476 2.70288 2.6255 2.70288 2.6255H1.22656C1.22656 2.6255 2.12512 5.2429 3.7942 8.51611H4.94984C6.61892 5.2429 7.51742 2.6255 7.51742 2.6255H6.0411C6.0411 2.6255 5.33505 4.66476 4.37202 6.84768Z" fill="#FEFEFE"/>
<path fill-rule="evenodd" clip-rule="evenodd" d="M22.9139 4.77879C22.0793 4.77879 22.0152 5.67751 22.0152 5.67751H23.8124C23.8124 5.67751 23.7483 4.77879 22.9139 4.77879ZM24.9037 6.57606H22.0152C22.0152 6.57606 22.0793 7.53904 23.3632 7.53904C24.005 7.53904 24.6469 7.34627 24.6469 7.34627L24.7754 8.37328C24.7754 8.37328 24.1335 8.6302 23.2348 8.6302C21.951 8.6302 20.7956 7.98823 20.7956 6.19096C20.7956 4.77879 21.6943 3.88013 22.9781 3.88013C24.9037 3.88013 25.032 5.8058 24.9037 6.57606ZM15.0817 5.05937L15.2805 3.99953C15.2805 3.99953 13.7458 3.53383 12.4984 4.39685V8.63623H13.8231V5.19172C14.353 4.79445 15.0817 5.05937 15.0817 5.05937ZM9.55974 4.77879C8.72534 4.77879 8.66118 5.67751 8.66118 5.67751H10.4584C10.4584 5.67751 10.3943 4.77879 9.55974 4.77879ZM11.5496 6.57606H8.66118C8.66118 6.57606 8.72534 7.53904 10.0091 7.53904C10.6508 7.53904 11.2928 7.34627 11.2928 7.34627L11.4213 8.37328C11.4213 8.37328 10.7793 8.6302 9.88064 8.6302C8.59688 8.6302 7.44141 7.98823 7.44141 6.19096C7.44141 4.77879 8.34012 3.88013 9.62389 3.88013C11.5496 3.88013 11.6779 5.8058 11.5496 6.57606ZM18.3147 7.01597C17.642 5.40141 17.3058 3.8809 17.3058 3.8809L15.9607 3.88106C15.9607 3.88106 16.6334 6.47775 17.7769 8.6294H18.8526C19.9961 6.47775 20.6688 3.88144 20.6688 3.88144H19.3236C19.3236 3.88144 18.9874 5.40141 18.3147 7.01597Z" fill="#03435F"/>
</g>
<defs>
<clipPath id="clip0">
<rect width="25" height="8.71212" fill="white" transform="translate(0 0.644043)"/>
</clipPath>
</defs>
</svg>
