<svg width="25" height="10" viewBox="0 0 25 10" fill="none" xmlns="http://www.w3.org/2000/svg">
<g clip-path="url(#clip0)">
<path d="M10.8338 8.9333H8.80859L10.0753 1.09229H12.1003L10.8338 8.9333Z" fill="#00579F"/>
<path d="M18.1746 1.28402C17.7751 1.12537 17.1416 0.950195 16.3582 0.950195C14.3582 0.950195 12.9499 2.01785 12.9413 3.54428C12.9247 4.67048 13.9496 5.29599 14.7162 5.6715C15.4997 6.05522 15.766 6.30567 15.766 6.64769C15.758 7.17298 15.1329 7.41512 14.5498 7.41512C13.7413 7.41512 13.308 7.29028 12.6497 6.99804L12.383 6.87276L12.0996 8.63289C12.5746 8.84953 13.4497 9.04177 14.3582 9.0502C16.4832 9.0502 17.8666 7.99906 17.883 6.37241C17.8911 5.47981 17.3499 4.79587 16.1831 4.23698C15.4748 3.87821 15.041 3.6363 15.041 3.26922C15.0493 2.93551 15.4079 2.5937 16.2074 2.5937C16.8658 2.57696 17.3495 2.73539 17.716 2.89393L17.8992 2.97719L18.1746 1.28402Z" fill="#00579F"/>
<path d="M20.8657 6.15551C21.0325 5.70505 21.6742 3.96165 21.6742 3.96165C21.6658 3.9784 21.8407 3.50288 21.9407 3.21097L22.0822 3.8866C22.0822 3.8866 22.4657 5.76348 22.549 6.15551C22.2325 6.15551 21.2657 6.15551 20.8657 6.15551ZM23.3655 1.09229H21.799C21.316 1.09229 20.949 1.23397 20.7406 1.74286L17.7324 8.93319H19.8574C19.8574 8.93319 20.2072 7.96542 20.2824 7.75699C20.5155 7.75699 22.5827 7.75699 22.8826 7.75699C22.9407 8.03228 23.1242 8.93319 23.1242 8.93319H24.9993L23.3655 1.09229Z" fill="#00579F"/>
<path d="M7.11717 1.09229L5.13385 6.43911L4.91713 5.35471C4.55045 4.10346 3.40049 2.74399 2.11719 2.06803L3.93383 8.92499H6.0754L9.25862 1.09229H7.11717Z" fill="#00579F"/>
<path d="M3.29164 1.09229H0.0333338L0 1.25072C2.54169 1.9014 4.22499 3.46985 4.91659 5.35504L4.20827 1.75139C4.09166 1.2506 3.73329 1.1088 3.29164 1.09229Z" fill="#FAA61A"/>
</g>
<defs>
<clipPath id="clip0">
<rect width="25" height="8.1" fill="white" transform="translate(0 0.950195)"/>
</clipPath>
</defs>
</svg>
