<svg width="30" height="31" viewBox="0 0 30 31" fill="none" xmlns="http://www.w3.org/2000/svg">
<path d="M27.2294 26.4532C28.509 25.14 28.509 23.3889 27.2294 22.1093L23.7273 18.6073C23.1212 17.9675 22.3804 17.6307 21.5722 17.6307C20.7977 17.6307 20.0569 17.9675 19.4171 18.6073L17.3967 20.6277C17.2283 20.5267 17.06 20.4593 16.8916 20.3583C16.6559 20.2573 16.4538 20.1226 16.2518 20.0216C14.3661 18.843 12.6487 17.2603 11.0324 15.2736C10.2242 14.2634 9.68543 13.4215 9.31502 12.546C9.82012 12.0746 10.3252 11.5695 10.7967 11.0981C10.965 10.9297 11.1671 10.7276 11.3354 10.5593C11.9752 9.91948 12.3456 9.14498 12.3456 8.37049C12.3456 7.596 12.0089 6.85518 11.3354 6.1817L9.61808 4.43068C9.41604 4.22863 9.214 4.02659 9.04563 3.82455C8.67522 3.42047 8.27114 3.01638 7.86705 2.64597C7.26093 2.03985 6.52011 1.70311 5.74561 1.70311C4.97112 1.70311 4.2303 2.03985 3.5905 2.64597L1.40171 4.83476C0.593547 5.64293 0.122116 6.61946 0.0210953 7.76436C-0.113599 9.61642 0.425179 11.3338 0.829262 12.4787C1.83947 15.2399 3.38846 17.8328 5.67827 20.594C8.47318 23.9277 11.8069 26.5206 15.612 28.3726C17.06 29.0798 19.013 29.8879 21.2018 30.0226C21.3365 30.0226 21.4712 30.0226 21.6059 30.0226C23.0539 30.0226 24.2998 29.4839 25.2426 28.44L25.2763 28.4063C25.6131 28.0022 25.9835 27.6318 26.3876 27.2614C26.6906 27.0257 26.96 26.7563 27.2294 26.4532ZM25.2426 26.0828C24.8386 26.4869 24.4008 26.891 24.0304 27.3624C23.3906 28.0696 22.6161 28.3726 21.6396 28.3726C21.5385 28.3726 21.4375 28.3726 21.3365 28.3726C19.4508 28.2043 17.6998 27.4971 16.3528 26.8573C12.7497 25.1063 9.61808 22.6481 6.99154 19.5165C4.83643 16.9236 3.38846 14.4991 2.41192 11.9062C1.8058 10.3236 1.60376 9.07764 1.70478 7.93273C1.77212 7.19191 2.07519 6.58579 2.58029 6.04701L4.7354 3.8919C5.03847 3.58883 5.3752 3.42047 5.71194 3.42047C6.11602 3.42047 6.45276 3.65618 6.68848 3.8919C7.09256 4.26231 7.4293 4.63272 7.83338 5.0368C8.03542 5.23884 8.23746 5.44088 8.4395 5.64293L10.1569 7.36028C10.4936 7.69702 10.662 8.03375 10.662 8.37049C10.662 8.70723 10.4936 9.04396 10.1569 9.3807C9.98849 9.54907 9.78645 9.75111 9.61808 9.91948C9.0793 10.4583 8.5742 10.9634 8.03542 11.4685L8.00175 11.5021C7.46297 12.0409 7.56399 12.5797 7.66501 12.9164C7.66501 12.9501 7.66501 12.9501 7.69868 12.9838C8.13644 14.0613 8.77624 15.1052 9.75278 16.3175C11.5038 18.4726 13.3559 20.1563 15.3763 21.4359C15.6457 21.6042 15.9151 21.7389 16.1508 21.8736C16.3865 21.9746 16.5885 22.1093 16.7906 22.2104C16.8242 22.2104 16.8242 22.244 16.8579 22.244C17.06 22.3451 17.262 22.4124 17.464 22.4124C17.9691 22.4124 18.3059 22.0757 18.4069 21.9746L20.5957 19.7859C20.7977 19.5838 21.1681 19.3144 21.5722 19.3144C21.9763 19.3144 22.2794 19.5838 22.5151 19.7859L26.0171 23.2879C26.8253 24.0961 26.4549 24.8369 25.9835 25.3083C25.7814 25.5777 25.512 25.8134 25.2426 26.0828ZM15.5446 6.11436C15.612 5.64293 16.0497 5.33986 16.5212 5.44088C18.5416 5.77762 20.36 6.72048 21.8079 8.20212C23.2559 9.68376 24.1988 11.5021 24.5692 13.4889C24.6365 13.9603 24.3335 14.3981 23.8957 14.4654C23.862 14.4654 23.7947 14.4654 23.761 14.4654C23.3569 14.4654 22.9865 14.1624 22.9192 13.7583C22.6498 12.1083 21.8416 10.5593 20.6294 9.3807C19.4171 8.16845 17.9018 7.39395 16.2518 7.09089C15.7467 7.02354 15.4436 6.58579 15.5446 6.11436ZM28.3406 13.5226C27.8355 10.5593 26.4212 7.86539 24.2998 5.71027C22.1447 3.55516 19.4508 2.17454 16.4875 1.66944C16.0161 1.60209 15.713 1.16433 15.814 0.692902C15.9151 0.221471 16.3191 -0.0815919 16.7906 0.019429C20.0569 0.558207 23.0875 2.10719 25.4784 4.49802C27.8692 6.88885 29.4519 9.91948 29.9906 13.2195C30.058 13.6909 29.7549 14.1287 29.3172 14.196C29.2835 14.196 29.2161 14.196 29.1825 14.196C28.7784 14.2297 28.408 13.9266 28.3406 13.5226Z" fill="#F8F8F8"/>
</svg>
