<svg width="30" height="20" viewBox="0 0 30 20" fill="none" xmlns="http://www.w3.org/2000/svg">
<path d="M29.7575 9.32836C26.6138 3.51679 21.1007 0 15 0C8.89925 0 3.37687 3.51679 0.261194 9.32836L0 9.76679L0.242537 10.2146C3.38619 16.0261 8.89925 19.5429 15 19.5429C21.1007 19.5429 26.6231 16.0728 29.7575 10.2146L30 9.76679L29.7575 9.32836ZM15 17.6306C9.74813 17.6306 4.92537 14.7015 2.12687 9.76679C4.92537 4.83209 9.74813 1.90298 15 1.90298C20.2519 1.90298 25.0187 4.84142 27.8638 9.76679C25.0187 14.7015 20.2425 17.6306 15 17.6306Z" fill="#F8F8F8"/>
<path d="M15.2703 3.39573C14.0055 3.40496 12.7718 3.78881 11.725 4.49879C10.6782 5.20877 9.8653 6.21304 9.38894 7.38476C8.91258 8.55648 8.79414 9.84308 9.04857 11.0821C9.30301 12.3211 9.91891 13.4569 10.8185 14.346C11.7181 15.2352 12.861 15.8378 14.1028 16.0778C15.3447 16.3178 16.6298 16.1844 17.7959 15.6944C18.962 15.2044 19.9568 14.3799 20.6545 13.3249C21.3523 12.2699 21.7217 11.0318 21.7162 9.767C21.7126 8.92505 21.5428 8.09211 21.2166 7.31589C20.8905 6.53968 20.4144 5.83546 19.8156 5.24359C19.2167 4.65171 18.507 4.18382 17.7271 3.86673C16.9471 3.54964 16.1122 3.38958 15.2703 3.39573ZM15.2703 14.3286C14.3769 14.3194 13.5061 14.0464 12.7673 13.5439C12.0286 13.0414 11.4547 12.3318 11.1179 11.5043C10.7811 10.6767 10.6963 9.76808 10.8742 8.89251C11.0522 8.01693 11.4848 7.21344 12.1179 6.58296C12.7509 5.95247 13.5562 5.5231 14.4325 5.34877C15.3088 5.17445 16.217 5.26293 17.0432 5.60312C17.8694 5.9433 18.5766 6.52002 19.0761 7.26084C19.5755 8.00166 19.845 8.87355 19.8505 9.767C19.853 10.3683 19.7361 10.9641 19.5066 11.5199C19.2771 12.0757 18.9395 12.5804 18.5134 13.0047C18.0874 13.429 17.5813 13.7645 17.0246 13.9918C16.4679 14.219 15.8716 14.3335 15.2703 14.3286Z" fill="#F8F8F8"/>
</svg>
