<svg width="30" height="27" viewBox="0 0 30 27" fill="none" xmlns="http://www.w3.org/2000/svg">
<path d="M22.9882 10.4543L25.0296 10.3655C25.3846 10.2767 25.7396 9.92171 25.7396 9.47792V6.99272H3.72781C3.28402 6.99272 2.92899 6.63769 2.92899 6.28266C2.92899 5.83887 3.28402 5.48384 3.72781 5.48384H7.81065L10.6509 4.15248H2.48521C1.95266 4.15248 1.50888 4.59627 1.50888 5.12881V23.9454C1.50888 24.4779 1.95266 24.9217 2.48521 24.9217H24.7633C25.2959 24.9217 25.7396 24.4779 25.7396 23.9454V19.5963C25.7396 19.0637 25.2959 18.6199 24.7633 18.6199C23.787 18.6199 22.8106 18.6199 21.7456 18.6199C20.4142 18.6199 19.3491 17.5548 19.3491 16.1347V12.8507C19.3491 10.6318 21.213 10.4543 22.9882 10.4543ZM11.2722 5.48384H21.0355L19.1716 1.75603L11.2722 5.48384ZM22.7219 5.48384H25.7396V5.12881C25.7396 4.59627 25.2959 4.15248 24.7633 4.15248H22.0118L22.7219 5.48384ZM21.3018 2.6436H24.7633C26.0947 2.6436 27.1598 3.79745 27.1598 5.12881C27.1598 6.54893 27.1598 8.05781 27.1598 9.47792C27.1598 9.83295 27.1598 10.0992 26.9822 10.4543H27.5148C28.8462 10.4543 30 11.5193 30 12.8507V16.1347C30 17.4661 28.8462 18.6199 27.5148 18.6199H26.9822C27.1598 18.8862 27.1598 19.2412 27.1598 19.5963V23.9454C27.1598 25.2767 26.0947 26.3418 24.7633 26.3418H2.48521C1.15385 26.3418 0 25.2767 0 23.9454V5.12881C0 3.79745 1.15385 2.6436 2.48521 2.6436H13.7574L19.2604 0.0696399C19.6154 -0.107875 20.0592 0.0696399 20.2367 0.42467L21.3018 2.6436ZM27.5148 11.9631C25.5621 11.9631 23.6982 11.9631 21.7456 11.9631C21.213 11.9631 20.858 12.3182 20.858 12.8507V16.1347C20.858 16.6673 21.213 17.1111 21.7456 17.1111C23.6982 17.1111 25.5621 17.1111 27.5148 17.1111C28.0473 17.1111 28.4911 16.6673 28.4911 16.1347V12.8507C28.4911 12.3182 28.0473 11.9631 27.5148 11.9631Z" fill="#F8F8F8"/>
<path d="M23.5206 15.691C24.1579 15.691 24.6745 15.1744 24.6745 14.5371C24.6745 13.8999 24.1579 13.3833 23.5206 13.3833C22.8834 13.3833 22.3668 13.8999 22.3668 14.5371C22.3668 15.1744 22.8834 15.691 23.5206 15.691Z" fill="#F8F8F8"/>
</svg>
