<svg width="13" height="12" viewBox="0 0 13 12" fill="none" xmlns="http://www.w3.org/2000/svg">
<path d="M6.63988 0.016353L0.365359 2.48134C0.316807 2.50053 0.276479 2.53607 0.251335 2.58182C0.226192 2.62757 0.217812 2.68067 0.227641 2.73194C0.23747 2.78321 0.264893 2.82944 0.305174 2.86265C0.345455 2.89586 0.396066 2.91397 0.448272 2.91384H12.7732C12.8256 2.9145 12.8766 2.89678 12.9173 2.86375C12.958 2.83072 12.9858 2.78447 12.9959 2.73306C13.0061 2.68164 12.9978 2.6283 12.9727 2.58231C12.9476 2.53632 12.9071 2.5006 12.8584 2.48134L6.80795 0.016353C6.75405 -0.00545101 6.69378 -0.00545101 6.63988 0.016353ZM1.63147 2.46566L6.7228 0.466774L11.6304 2.46566H1.63147Z" fill="#F8F8F8"/>
<path d="M12.7731 11.2051H0.22409C0.164658 11.2051 0.10766 11.2287 0.0656345 11.2707C0.0236094 11.3127 0 11.3697 0 11.4292C0 11.4886 0.0236094 11.5456 0.0656345 11.5876C0.10766 11.6296 0.164658 11.6533 0.22409 11.6533H12.7731C12.8326 11.6533 12.8896 11.6296 12.9316 11.5876C12.9736 11.5456 12.9972 11.4886 12.9972 11.4292C12.9972 11.3697 12.9736 11.3127 12.9316 11.2707C12.8896 11.2287 12.8326 11.2051 12.7731 11.2051Z" fill="#F8F8F8"/>
<path d="M11.6524 4.03436C11.7118 4.03436 11.7688 4.01075 11.8108 3.96873C11.8528 3.9267 11.8764 3.8697 11.8764 3.81027C11.8764 3.75084 11.8528 3.69384 11.8108 3.65182C11.7688 3.60979 11.7118 3.58618 11.6524 3.58618H1.54141C1.48197 3.58618 1.42498 3.60979 1.38295 3.65182C1.34093 3.69384 1.31732 3.75084 1.31732 3.81027C1.31732 3.8697 1.34093 3.9267 1.38295 3.96873C1.42498 4.01075 1.48197 4.03436 1.54141 4.03436H2.01648V10.0848H1.34421C1.28477 10.0848 1.22778 10.1084 1.18575 10.1504C1.14373 10.1925 1.12012 10.2495 1.12012 10.3089C1.12012 10.3683 1.14373 10.4253 1.18575 10.4673C1.22778 10.5094 1.28477 10.533 1.34421 10.533H11.4552C11.5146 10.533 11.5716 10.5094 11.6136 10.4673C11.6556 10.4253 11.6792 10.3683 11.6792 10.3089C11.6792 10.2495 11.6556 10.1925 11.6136 10.1504C11.5716 10.1084 11.5146 10.0848 11.4552 10.0848H10.9801V4.03436H11.6524ZM6.72237 4.03436H8.51509V10.0848H6.72237V4.03436ZM6.27419 10.0848H4.48147V4.03436H6.27419V10.0848ZM2.46466 4.03436H4.03329V10.0848H2.46466V4.03436ZM10.5319 10.0848H8.96327V4.03436H10.5319V10.0848Z" fill="#F8F8F8"/>
</svg>
