<svg width="30" height="32" viewBox="0 0 30 32" fill="none" xmlns="http://www.w3.org/2000/svg">
<path d="M30 10.7969V3.25781C30 1.46094 28.5391 0 26.7422 0H7.17188C5.44531 0 4.03125 1.39063 4.03125 3.10156L3.91406 22.0156H0.78125C0.351562 22.0156 0 22.3672 0 22.7969V26.9609C0 29.1641 1.75 30.9688 3.92969 31.0625V31.0703H20.7109V31.0625C20.7891 31.0703 20.8672 31.0703 20.9453 31.0703C23.2109 31.0703 25.0547 29.2266 25.0547 26.9609V11.5703H29.2188C29.6484 11.5781 30 11.2344 30 10.7969ZM1.5625 26.9688V23.5859H16.8359V26.9688C16.8359 27.9297 17.1719 28.8125 17.7266 29.5156H4.10938C2.70312 29.5156 1.5625 28.375 1.5625 26.9688ZM23.4922 3.25781V26.9688C23.4922 28.375 22.3516 29.5156 20.9453 29.5156C19.5391 29.5156 18.3984 28.375 18.3984 26.9688V22.8047C18.3984 22.375 18.0469 22.0234 17.6172 22.0234H5.48438L5.59375 3.10938C5.59375 2.25781 6.29688 1.5625 7.17188 1.5625H23.9688C23.6641 2.0625 23.4922 2.64062 23.4922 3.25781ZM28.4375 10.0156H25.0547V3.25781C25.0547 2.32812 25.8125 1.5625 26.75 1.5625C27.6797 1.5625 28.4453 2.32031 28.4453 3.25781V10.0156H28.4375Z" fill="#F8F8F8"/>
<path d="M20.1484 9.78125H8.46872C8.03903 9.78125 7.68747 10.1328 7.68747 10.5625C7.68747 10.9922 8.03903 11.3437 8.46872 11.3437H20.1562C20.5859 11.3437 20.9375 10.9922 20.9375 10.5625C20.9375 10.1328 20.5781 9.78125 20.1484 9.78125Z" fill="#F8F8F8"/>
<path d="M20.1484 13.6016H8.46872C8.03903 13.6016 7.68747 13.9531 7.68747 14.3828C7.68747 14.8125 8.03903 15.1641 8.46872 15.1641H20.1562C20.5859 15.1641 20.9375 14.8125 20.9375 14.3828C20.9375 13.9531 20.5781 13.6016 20.1484 13.6016Z" fill="#F8F8F8"/>
<path d="M15.2265 17.3437H8.46872C8.03903 17.3437 7.68747 17.6953 7.68747 18.125C7.68747 18.5547 8.03903 18.9062 8.46872 18.9062H15.2265C15.6562 18.9062 16.0078 18.5547 16.0078 18.125C16.0078 17.6953 15.6562 17.3437 15.2265 17.3437Z" fill="#F8F8F8"/>
</svg>
