<svg width="14" height="13" viewBox="0 0 14 13" fill="none" xmlns="http://www.w3.org/2000/svg">
<path d="M0.456525 0C0.204386 0 0 0.204394 0 0.456525C0 0.708657 0.204386 0.913051 0.456525 0.913051H2.27788C3.03346 2.78442 3.7777 4.65922 4.52721 6.53402L3.83767 8.19367C3.77991 8.33204 3.79616 8.49889 3.87954 8.62351C3.96293 8.74813 4.11096 8.82678 4.2609 8.82615H11.8697C12.1108 8.8295 12.3327 8.61084 12.3327 8.36963C12.3327 8.12842 12.1108 7.9097 11.8697 7.9131H4.94569L5.3404 6.97152L12.6686 6.38661C12.8604 6.37154 13.034 6.22211 13.0775 6.0347L13.9906 2.07814C14.0503 1.81165 13.8167 1.52086 13.5436 1.52175H3.50477L3.01021 0.285328C2.94249 0.117963 2.76752 4.56525e-06 2.58698 0H0.456525ZM3.87095 2.4348H12.9682L12.2596 5.50684L5.32138 6.05847L3.87095 2.4348ZM5.78265 9.1305C4.94762 9.1305 4.2609 9.81721 4.2609 10.6523C4.2609 11.4873 4.94762 12.174 5.78265 12.174C6.61768 12.174 7.3044 11.4873 7.3044 10.6523C7.3044 9.81723 6.61768 9.1305 5.78265 9.1305ZM10.3479 9.1305C9.51288 9.1305 8.82615 9.81723 8.82615 10.6523C8.82615 11.4873 9.51288 12.174 10.3479 12.174C11.1829 12.174 11.8697 11.4873 11.8697 10.6523C11.8697 9.81721 11.1829 9.1305 10.3479 9.1305ZM5.78265 10.0436C6.12424 10.0436 6.39135 10.3107 6.39135 10.6523C6.39135 10.9938 6.12424 11.261 5.78265 11.261C5.4411 11.261 5.17395 10.9938 5.17395 10.6523C5.17395 10.3107 5.4411 10.0436 5.78265 10.0436ZM10.3479 10.0436C10.6895 10.0436 10.9566 10.3107 10.9566 10.6523C10.9566 10.9938 10.6895 11.261 10.3479 11.261C10.0063 11.261 9.7392 10.9938 9.7392 10.6523C9.7392 10.3107 10.0063 10.0436 10.3479 10.0436Z" fill="#F8F8F8"/>
</svg>
