<svg width="56" height="56" viewBox="0 0 56 56" fill="none" xmlns="http://www.w3.org/2000/svg">
<circle cx="28" cy="28" r="28" fill="#FFE8D8"/>
<path d="M38.2857 17H20C19.0547 17 18.2857 17.769 18.2857 18.7143V19.2857H17.7143C16.769 19.2857 16 20.0547 16 21V32.4286C16 33.3739 16.769 34.1429 17.7143 34.1429H20.5714V38.1429C20.5714 38.3945 20.7363 38.6166 20.9774 38.6897C21.0321 38.7065 21.0876 38.7143 21.1429 38.7143C21.3304 38.7143 21.5103 38.6217 21.6183 38.4598L24.4964 34.1429H36C36.9453 34.1429 37.7143 33.3739 37.7143 32.4286V31.8571H38.2857C39.231 31.8571 40 31.0882 40 30.1429V18.7143C40 17.769 39.231 17 38.2857 17ZM36.5714 32.4286C36.5714 32.7439 36.315 33 36 33H24.1906C23.9994 33 23.8211 33.0954 23.7151 33.2545L21.7143 36.2556V33.5714C21.7143 33.2556 21.4584 33 21.1429 33H17.7143C17.3993 33 17.1429 32.7439 17.1429 32.4286V21C17.1429 20.6847 17.3993 20.4286 17.7143 20.4286H36C36.315 20.4286 36.5714 20.6847 36.5714 21V32.4286ZM38.8571 30.1429C38.8571 30.4581 38.6007 30.7143 38.2857 30.7143H37.7143V21C37.7143 20.0547 36.9453 19.2857 36 19.2857H19.4286V18.7143C19.4286 18.399 19.685 18.1429 20 18.1429H38.2857C38.6007 18.1429 38.8571 18.399 38.8571 18.7143V30.1429Z" fill="#FF6C00"/>
</svg>
