<svg width="30" height="30" viewBox="0 0 30 30" fill="none" xmlns="http://www.w3.org/2000/svg">
<path d="M28.1953 0.982296C23.3971 6.57042 18.599 12.1585 13.8008 17.7466C11.9237 15.6576 10.0465 13.5685 8.16927 11.4794C7.23717 10.4422 5.71197 11.9754 6.64024 13.0085C8.77806 15.3876 10.9159 17.7667 13.0537 20.1458C13.4234 20.5572 14.2164 20.5724 14.5827 20.1458C19.6299 14.2676 24.6771 8.38948 29.7243 2.5113C30.6264 1.46061 29.1037 -0.0756577 28.1953 0.982296Z" fill="#F8F8F8"/>
<path d="M26.3993 10.4038C28.2308 16.3102 25.8579 22.7426 20.2463 25.5956C15.234 28.1439 8.92456 26.9095 5.23507 22.6704C1.53523 18.4194 1.16322 12.0366 4.36778 7.39395C8.10572 1.97851 15.3306 0.59875 20.9863 3.76569C22.2018 4.44631 23.2933 2.57925 22.0777 1.89854C11.8959 -3.80272 -1.18531 4.0484 0.086022 15.9698C1.25659 26.9461 14.2892 32.8764 23.2526 26.2688C28.4017 22.473 30.3621 15.8843 28.4844 9.82893C28.0736 8.50397 25.9855 9.06934 26.3993 10.4038Z" fill="#F8F8F8"/>
</svg>
