<svg width="56" height="56" viewBox="0 0 56 56" fill="none" xmlns="http://www.w3.org/2000/svg">
<circle cx="28" cy="28" r="28" fill="#FFE8D8"/>
<path d="M34.7152 22.9607L38.5406 17.8601C38.6974 17.6511 38.7227 17.3717 38.6059 17.1381C38.4891 16.9046 38.2505 16.7571 37.9893 16.7571H22.1357V14.6893C22.1357 14.3086 21.8271 14 21.4464 14C21.0658 14 20.7571 14.3086 20.7571 14.6893V41.5714H18.6893C18.3086 41.5714 18 41.8797 18 42.2607C18 42.6417 18.3086 42.95 18.6893 42.95H24.2036C24.5842 42.95 24.8929 42.6417 24.8929 42.2607C24.8929 41.8797 24.5842 41.5714 24.2036 41.5714H22.1357V29.1643H37.9893C38.2505 29.1643 38.4891 29.0169 38.6059 28.7833C38.7227 28.5497 38.6974 28.2704 38.5406 28.0614L34.7152 22.9607ZM22.1357 27.7857V18.1357H36.6107L33.3023 22.5471C33.1182 22.7921 33.1182 23.1293 33.3023 23.3744L36.6107 27.7857H22.1357Z" fill="#FF6C00"/>
</svg>
