<svg width="56" height="56" viewBox="0 0 56 56" fill="none" xmlns="http://www.w3.org/2000/svg">
<circle cx="28" cy="28" r="28" fill="#FFE8D8"/>
<path d="M29.2859 40.0002C29.2686 40.0002 29.251 39.9996 29.2335 39.9979C28.9815 39.9745 28.775 39.7887 28.7254 39.5409L26.5144 28.4856L15.4592 26.2747C15.2114 26.225 15.0253 26.0185 15.0024 25.7669C14.9793 25.5146 15.1243 25.278 15.359 25.1837L38.2162 16.0409C38.4288 15.956 38.6713 16.0057 38.8325 16.1675C38.9941 16.3294 39.044 16.5715 38.9592 16.7836L29.8163 39.6408C29.7287 39.8595 29.5175 40.0002 29.2859 40.0002ZM17.5683 25.5308L27.1121 27.4399C27.3381 27.4851 27.515 27.662 27.5602 27.888L29.469 37.4315L37.4028 17.5972L17.5683 25.5308Z" fill="#FF6C00"/>
</svg>
