<svg width="30" height="21" viewBox="0 0 30 21" fill="none" xmlns="http://www.w3.org/2000/svg">
<path fill-rule="evenodd" clip-rule="evenodd" d="M22.8835 0C20.3707 0 18.3238 2.0475 18.3238 4.55964C18.3238 6.08169 19.0791 7.43764 20.2308 8.26701C18.0745 9.13928 16.4302 11.0325 15.9269 13.3487C14.9485 12.3883 13.7646 11.646 12.4432 11.186C14.1512 10.1442 15.2983 8.26506 15.2983 6.12568C15.2983 2.86303 12.6412 0.19176 9.37502 0.19176C6.11186 0.19176 3.45176 2.86303 3.45176 6.12568C3.45176 8.26492 4.58937 10.1442 6.29622 11.186C2.63402 12.4606 6.81871e-05 15.9464 6.81871e-05 20.0389C-0.00120957 20.1293 0.015482 20.219 0.049173 20.3028C0.0828641 20.3867 0.132883 20.463 0.196322 20.5273C0.259761 20.5917 0.335355 20.6428 0.418712 20.6777C0.502069 20.7125 0.591526 20.7305 0.681883 20.7305C0.772241 20.7305 0.861698 20.7125 0.945054 20.6777C1.02841 20.6428 1.10401 20.5917 1.16744 20.5273C1.23088 20.463 1.2809 20.3867 1.31459 20.3028C1.34828 20.219 1.36498 20.1293 1.3637 20.0389C1.3637 15.7197 4.76163 12.2129 9.03412 12.0383C9.14471 12.0444 9.26293 12.0488 9.37502 12.0488C9.48725 12.0488 9.5946 12.0444 9.7053 12.0383C13.981 12.2129 17.3757 15.7194 17.3757 20.0389C17.3744 20.1293 17.3911 20.219 17.4248 20.3028C17.4585 20.3867 17.5085 20.463 17.572 20.5273C17.6354 20.5917 17.711 20.6428 17.7944 20.6777C17.8777 20.7125 17.9672 20.7305 18.0575 20.7305C18.1479 20.7305 18.2373 20.7125 18.3207 20.6777C18.4041 20.6428 18.4797 20.5917 18.5431 20.5273C18.6065 20.463 18.6565 20.3867 18.6902 20.3028C18.7239 20.219 18.7406 20.1293 18.7393 20.0389C18.7393 18.0972 18.1455 16.2951 17.1307 14.7975C17.167 11.7209 19.6035 9.23531 22.6598 9.11928C22.7339 9.12289 22.8085 9.11928 22.8835 9.11928C22.9584 9.11928 23.0331 9.12289 23.1072 9.11928C26.1866 9.23619 28.6363 11.7527 28.6363 14.8614C28.635 14.9518 28.6517 15.0415 28.6854 15.1253C28.7191 15.2092 28.7691 15.2855 28.8326 15.3498C28.896 15.4142 28.9716 15.4653 29.0549 15.5001C29.1383 15.535 29.2278 15.553 29.3181 15.553C29.4085 15.553 29.4979 15.535 29.5813 15.5001C29.6646 15.4653 29.7402 15.4142 29.8037 15.3498C29.8671 15.2855 29.9171 15.2092 29.9508 15.1253C29.9845 15.0415 30.0012 14.9518 29.9999 14.8614C29.9999 11.8797 28.1561 9.32291 25.5469 8.26701C26.6996 7.43779 27.4538 6.08222 27.4538 4.55964C27.4538 2.04678 25.3963 0 22.8835 0ZM9.37502 1.55539C11.9043 1.55539 13.9347 3.59972 13.9347 6.12568C13.9347 8.54488 12.0635 10.5125 9.68399 10.6746C9.57841 10.6712 9.48146 10.6641 9.37502 10.6641C9.26876 10.6641 9.1609 10.6712 9.05546 10.6746C6.67937 10.5124 4.81539 8.54483 4.81539 6.12568C4.81539 3.59972 6.84962 1.55539 9.37502 1.55539Z" fill="#F8F8F8"/>
</svg>
