<svg width="15" height="16" viewBox="0 0 15 16" fill="none" xmlns="http://www.w3.org/2000/svg">
<path d="M3.2002 7.19995H4.8002V8.79995H3.2002V7.19995ZM3.2002 10.4H4.8002V12H3.2002V10.4ZM6.4002 7.19995H8.0002V8.79995H6.4002V7.19995ZM6.4002 10.4H8.0002V12H6.4002V10.4ZM9.6002 7.19995H11.2002V8.79995H9.6002V7.19995ZM9.6002 10.4H11.2002V12H9.6002V10.4Z" fill="#575F6E"/>
<path d="M1.6 16H12.8C13.6824 16 14.4 15.2824 14.4 14.4V3.2C14.4 2.3176 13.6824 1.6 12.8 1.6H11.2V0H9.6V1.6H4.8V0H3.2V1.6H1.6C0.7176 1.6 0 2.3176 0 3.2V14.4C0 15.2824 0.7176 16 1.6 16ZM12.8 4.8L12.8008 14.4H1.6V4.8H12.8Z" fill="#575F6E"/>
</svg>
