<svg width="21" height="30" viewBox="0 0 21 30" fill="none" xmlns="http://www.w3.org/2000/svg">
<path d="M13.9446 18.1255C12.5552 18.1255 11.1564 17.7759 9.87109 17.0896C8.12731 16.1577 6.13603 16.0152 4.40632 16.6977L1.28158 17.9296C0.994703 18.0412 0.666573 18.0074 0.410632 17.8321C0.153753 17.6577 0 17.3671 0 17.0568V2.66124C0 2.27592 0.235316 1.92998 0.593447 1.78935L3.71818 0.557456C5.95884 -0.326621 8.52388 -0.152243 10.7533 1.03934C10.7533 1.03934 10.7533 1.03934 10.7542 1.03934C12.4961 1.97029 14.4884 2.11186 16.2181 1.43122L19.3119 0.0783855C19.6016 -0.048179 19.9353 -0.0200536 20.2006 0.152449C20.4659 0.325889 20.6253 0.621207 20.6253 0.937149V15.3327C20.6253 15.7049 20.405 16.0424 20.0628 16.1924L16.9381 17.5583C15.9771 17.938 14.9627 18.1255 13.9446 18.1255ZM6.67135 14.3961C8.05981 14.3961 9.46421 14.7458 10.7552 15.4349C12.4961 16.364 14.4893 16.5074 16.219 15.8258L18.7503 14.7186V2.37061L16.9381 3.16281C14.6646 4.06095 12.0996 3.88563 9.87015 2.69405C8.12638 1.76404 6.1351 1.61966 4.40538 2.30311L1.87503 3.29969V15.6796L3.71912 14.953C4.66226 14.5808 5.66259 14.3961 6.67135 14.3961Z" fill="#F8F8F8"/>
<path d="M0.937515 30C0.420007 30 0 29.5809 0 29.0625V16.8748C0 16.3564 0.420007 15.9373 0.937515 15.9373C1.45502 15.9373 1.87503 16.3564 1.87503 16.8748V29.0625C1.87503 29.5809 1.45502 30 0.937515 30Z" fill="#F8F8F8"/>
</svg>
