<svg width="271" height="15" viewBox="0 0 271 15" fill="none" xmlns="http://www.w3.org/2000/svg">
<path d="M6 2C2.69169 2 0 4.69169 0 8C0 11.3083 2.69169 14 6 14C9.30831 14 12 11.3083 12 8C12 4.69169 9.30831 2 6 2ZM6 2.92308C8.80938 2.92308 11.0769 5.19062 11.0769 8C11.0769 10.8094 8.80938 13.0769 6 13.0769C3.19062 13.0769 0.923077 10.8094 0.923077 8C0.923077 5.19062 3.19062 2.92308 6 2.92308ZM5.95662 5.23077C4.42246 5.23077 3.18738 6.46585 3.18738 8C3.18738 9.53415 4.42246 10.7692 5.95662 10.7692C7.06431 10.7692 8.01046 10.1046 8.45169 9.16769L7.61538 8.77862C7.31769 9.41138 6.69508 9.84615 5.95662 9.84615C4.90615 9.84615 4.11046 9.05046 4.11046 8C4.11046 6.94954 4.90615 6.15385 5.95662 6.15385C6.69508 6.15385 7.31815 6.58862 7.61538 7.22138L8.45215 6.83185C8.01092 5.89492 7.06431 5.23031 5.95662 5.23031V5.23077Z" fill="#182A2C"/>
<path d="M20.3535 12.1465C19.5957 12.1465 18.9219 11.9785 18.332 11.6426C17.7461 11.3066 17.2891 10.8359 16.9609 10.2305C16.6328 9.625 16.4688 8.93164 16.4688 8.15039C16.4688 7.36523 16.6309 6.67188 16.9551 6.07031C17.2793 5.46484 17.7363 4.99414 18.3262 4.6582C18.9199 4.32227 19.5957 4.1543 20.3535 4.1543C20.9551 4.1543 21.5098 4.25781 22.0176 4.46484C22.5254 4.67188 22.9492 4.96875 23.2891 5.35547C23.6289 5.73828 23.8555 6.18555 23.9688 6.69727H22.8145C22.6699 6.23242 22.3711 5.85352 21.918 5.56055C21.4688 5.26758 20.9395 5.12109 20.3301 5.12109C19.7871 5.12109 19.3047 5.24805 18.8828 5.50195C18.4648 5.75586 18.1387 6.11133 17.9043 6.56836C17.6738 7.02148 17.5586 7.55273 17.5586 8.16211C17.5586 8.77148 17.6738 9.30469 17.9043 9.76172C18.1387 10.2148 18.4648 10.5645 18.8828 10.8105C19.3047 11.0527 19.7871 11.1738 20.3301 11.1738C20.9316 11.1738 21.457 11.0312 21.9062 10.7461C22.3594 10.4609 22.6621 10.0781 22.8145 9.59766H23.9688C23.8633 10.1016 23.6426 10.5469 23.3066 10.9336C22.9707 11.3164 22.5469 11.6152 22.0352 11.8301C21.5234 12.041 20.9629 12.1465 20.3535 12.1465ZM24.707 9.35742C24.707 8.83008 24.8262 8.35547 25.0645 7.93359C25.3066 7.50781 25.6426 7.17188 26.0723 6.92578C26.5059 6.67578 26.998 6.55078 27.5488 6.55078C28.0996 6.55078 28.5938 6.67578 29.0312 6.92578C29.4688 7.17188 29.8066 7.50781 30.0449 7.93359C30.2871 8.35547 30.4082 8.83008 30.4082 9.35742C30.4082 9.87695 30.2852 10.3496 30.0391 10.7754C29.7969 11.2012 29.459 11.5371 29.0254 11.7832C28.5957 12.0254 28.1035 12.1465 27.5488 12.1465C27.0059 12.1465 26.5176 12.0254 26.084 11.7832C25.6543 11.5371 25.3164 11.2031 25.0703 10.7812C24.8281 10.3555 24.707 9.88086 24.707 9.35742ZM25.7383 9.35742C25.7383 9.9043 25.9082 10.3574 26.248 10.7168C26.5879 11.0762 27.0215 11.2559 27.5488 11.2559C28.0918 11.2559 28.5332 11.0762 28.873 10.7168C29.2168 10.3574 29.3887 9.9043 29.3887 9.35742C29.3887 8.80664 29.2188 8.34961 28.8789 7.98633C28.5391 7.62305 28.0957 7.44141 27.5488 7.44141C27.0215 7.44141 26.5879 7.62305 26.248 7.98633C25.9082 8.34961 25.7383 8.80664 25.7383 9.35742ZM34.6152 6.55078C35.1113 6.55078 35.5508 6.66797 35.9336 6.90234C36.3203 7.13281 36.623 7.46289 36.8418 7.89258C37.0605 8.31836 37.1699 8.80664 37.1699 9.35742C37.1699 9.90039 37.0605 10.3848 36.8418 10.8105C36.623 11.2363 36.3184 11.5664 35.9277 11.8008C35.541 12.0312 35.0996 12.1465 34.6035 12.1465C34.1699 12.1465 33.7832 12.0645 33.4434 11.9004C33.1035 11.7363 32.8418 11.5059 32.6582 11.209V14.3613H31.6855V6.70898H32.5059L32.5879 7.64648C32.7637 7.31836 33.0332 7.05469 33.3965 6.85547C33.7598 6.65234 34.166 6.55078 34.6152 6.55078ZM34.4336 11.2559C34.9531 11.2559 35.3711 11.0801 35.6875 10.7285C36.0039 10.377 36.1621 9.91992 36.1621 9.35742C36.1621 8.7832 36.0039 8.32422 35.6875 7.98047C35.3711 7.63672 34.957 7.46484 34.4453 7.46484C33.9258 7.46484 33.5098 7.63867 33.1973 7.98633C32.8887 8.33398 32.7344 8.80078 32.7344 9.38672C32.7344 9.96094 32.8887 10.416 33.1973 10.752C33.5098 11.0879 33.9219 11.2559 34.4336 11.2559ZM43.0469 6.70898L40.627 13.0312C40.4355 13.5039 40.1953 13.8594 39.9062 14.0977C39.6172 14.3398 39.2207 14.4609 38.7168 14.4609C38.4512 14.4609 38.1758 14.4199 37.8906 14.3379V13.5234C37.9219 13.5312 38 13.5469 38.125 13.5703C38.2539 13.5938 38.3984 13.6055 38.5586 13.6055C38.9023 13.6055 39.1543 13.5371 39.3145 13.4004C39.4746 13.2676 39.6074 13.0605 39.7129 12.7793L39.9062 12.2754L37.6387 6.70898H38.7051L40.375 11.0273L41.9922 6.70898H43.0469ZM46.4043 6.66211C46.5801 6.66211 46.748 6.67773 46.9082 6.70898V7.55859C46.8184 7.54297 46.6934 7.53516 46.5332 7.53516C46.0527 7.53516 45.6816 7.67773 45.4199 7.96289C45.1621 8.24805 45.0332 8.64258 45.0332 9.14648V12H44.0371V6.70898H44.916L45.0332 7.51172C45.123 7.23828 45.291 7.0293 45.5371 6.88477C45.7871 6.73633 46.0762 6.66211 46.4043 6.66211ZM48.4668 5.41406C48.2598 5.41406 48.0859 5.34375 47.9453 5.20312C47.8047 5.0625 47.7344 4.88867 47.7344 4.68164C47.7344 4.48242 47.8047 4.31445 47.9453 4.17773C48.0859 4.04102 48.2598 3.97266 48.4668 3.97266C48.6816 3.97266 48.8574 4.04102 48.9941 4.17773C49.1309 4.31445 49.1992 4.48242 49.1992 4.68164C49.1992 4.88086 49.1309 5.05273 48.9941 5.19727C48.8613 5.3418 48.6855 5.41406 48.4668 5.41406ZM47.9746 6.70898H48.9707V12H47.9746V6.70898ZM55.7266 6.70898V11.9766C55.7266 12.7461 55.4824 13.3613 54.9941 13.8223C54.5059 14.2871 53.8496 14.5195 53.0254 14.5195C52.3066 14.5195 51.7109 14.334 51.2383 13.9629C50.7656 13.5918 50.4844 13.082 50.3945 12.4336H51.3789C51.457 12.8164 51.6426 13.1133 51.9355 13.3242C52.2285 13.5391 52.5918 13.6465 53.0254 13.6465C53.5684 13.6465 53.9883 13.498 54.2852 13.2012C54.582 12.9043 54.7305 12.5039 54.7305 12V10.8867C54.5469 11.1914 54.2852 11.4297 53.9453 11.6016C53.6094 11.7695 53.2266 11.8535 52.7969 11.8535C52.3008 11.8535 51.8613 11.7402 51.4785 11.5137C51.0996 11.2871 50.8086 10.9746 50.6055 10.5762C50.4023 10.1738 50.3008 9.72461 50.3008 9.22852C50.3008 8.72461 50.4043 8.26953 50.6113 7.86328C50.8184 7.45312 51.1133 7.13281 51.4961 6.90234C51.8828 6.66797 52.3281 6.55078 52.832 6.55078C53.2734 6.55078 53.6602 6.64062 53.9922 6.82031C54.3242 7 54.582 7.25 54.7656 7.57031L54.8242 6.70898H55.7266ZM52.9668 10.9805C53.4707 10.9805 53.8789 10.8105 54.1914 10.4707C54.5078 10.1309 54.666 9.70898 54.666 9.20508C54.666 8.70117 54.5098 8.2793 54.1973 7.93945C53.8887 7.59961 53.4785 7.42969 52.9668 7.42969C52.4629 7.42969 52.0625 7.59961 51.7656 7.93945C51.4688 8.2793 51.3203 8.70508 51.3203 9.2168C51.3203 9.72852 51.4707 10.1504 51.7715 10.4824C52.0723 10.8145 52.4707 10.9805 52.9668 10.9805ZM57.3379 3.76758H58.334V7.42969C58.4941 7.15625 58.7285 6.94141 59.0371 6.78516C59.3457 6.62891 59.6797 6.55078 60.0391 6.55078C60.6406 6.55078 61.1172 6.74219 61.4688 7.125C61.8203 7.50391 61.9961 8.03711 61.9961 8.72461V12H61V8.95312C61 8.41016 60.8848 8.02539 60.6543 7.79883C60.4277 7.56836 60.1387 7.45312 59.7871 7.45312C59.3887 7.45312 59.0469 7.57617 58.7617 7.82227C58.4766 8.06445 58.334 8.41211 58.334 8.86523V12H57.3379V3.76758ZM66.127 7.53516H65.084V12H64.0879V7.53516H63.0566V6.70898H64.0879V5.30273H65.084V6.70898H66.127V7.53516ZM71.5762 11.0508H74.6992V12H70.0527V11.2441L72.7773 8.20898C73.0586 7.89648 73.2812 7.59961 73.4453 7.31836C73.6094 7.0332 73.6914 6.72656 73.6914 6.39844C73.6914 6.01562 73.5625 5.70312 73.3047 5.46094C73.0508 5.21875 72.7148 5.09766 72.2969 5.09766C71.8477 5.09766 71.4883 5.23242 71.2188 5.50195C70.9531 5.77148 70.8203 6.10938 70.8203 6.51562L70.832 6.68555H69.8359L69.8242 6.46875C69.8242 6.01953 69.9316 5.62109 70.1465 5.27344C70.3652 4.92578 70.666 4.6543 71.0488 4.45898C71.4316 4.26367 71.8633 4.16602 72.3438 4.16602C72.8086 4.16602 73.2207 4.25781 73.5801 4.44141C73.9395 4.625 74.2168 4.88281 74.4121 5.21484C74.6113 5.54688 74.7109 5.92383 74.7109 6.3457C74.7109 6.81836 74.6035 7.24219 74.3887 7.61719C74.1777 7.98828 73.9082 8.36133 73.5801 8.73633L71.5762 11.0508ZM78.6719 12.1172C77.7812 12.1172 77.0898 11.7676 76.5977 11.0684C76.1055 10.3691 75.8594 9.40039 75.8594 8.16211C75.8594 6.91602 76.1055 5.93945 76.5977 5.23242C77.0898 4.52148 77.7812 4.16602 78.6719 4.16602C79.5664 4.16602 80.2598 4.51953 80.752 5.22656C81.2441 5.93359 81.4902 6.91211 81.4902 8.16211C81.4902 9.40039 81.2422 10.3691 80.7461 11.0684C80.25 11.7676 79.5586 12.1172 78.6719 12.1172ZM78.6719 11.209C79.2539 11.209 79.6934 10.9434 79.9902 10.4121C80.2871 9.87695 80.4355 9.12695 80.4355 8.16211C80.4355 7.18555 80.2871 6.43164 79.9902 5.90039C79.6934 5.36523 79.2539 5.09766 78.6719 5.09766C78.0977 5.09766 77.6602 5.36328 77.3594 5.89453C77.0586 6.42188 76.9082 7.17773 76.9082 8.16211C76.9082 9.13086 77.0566 9.88086 77.3535 10.4121C77.6543 10.9434 78.0938 11.209 78.6719 11.209ZM84.373 11.0508H87.4961V12H82.8496V11.2441L85.5742 8.20898C85.8555 7.89648 86.0781 7.59961 86.2422 7.31836C86.4062 7.0332 86.4883 6.72656 86.4883 6.39844C86.4883 6.01562 86.3594 5.70312 86.1016 5.46094C85.8477 5.21875 85.5117 5.09766 85.0938 5.09766C84.6445 5.09766 84.2852 5.23242 84.0156 5.50195C83.75 5.77148 83.6172 6.10938 83.6172 6.51562L83.6289 6.68555H82.6328L82.6211 6.46875C82.6211 6.01953 82.7285 5.62109 82.9434 5.27344C83.1621 4.92578 83.4629 4.6543 83.8457 4.45898C84.2285 4.26367 84.6602 4.16602 85.1406 4.16602C85.6055 4.16602 86.0176 4.25781 86.377 4.44141C86.7363 4.625 87.0137 4.88281 87.209 5.21484C87.4082 5.54688 87.5078 5.92383 87.5078 6.3457C87.5078 6.81836 87.4004 7.24219 87.1855 7.61719C86.9746 7.98828 86.7051 8.36133 86.377 8.73633L84.373 11.0508ZM88.5156 5.47266C89.0664 5.47266 89.4941 5.37695 89.7988 5.18555C90.1035 4.99414 90.3105 4.69727 90.4199 4.29492H91.334V12H90.3145V6.25195H88.5156V5.47266ZM96.6016 4.30664L97.8262 6.03516C98.0176 6.31641 98.1992 6.5918 98.3711 6.86133C98.543 7.12695 98.6562 7.30859 98.7109 7.40625L100.779 4.30664H102.051L99.3379 8.15039L102.074 12H100.756L99.5547 10.2949C99.3633 10.0059 99.1875 9.73828 99.0273 9.49219C98.8672 9.24219 98.7578 9.07422 98.6992 8.98828L96.5898 12H95.3301L98.0547 8.17383L95.2949 4.30664H96.6016ZM105.982 6.55078C106.479 6.55078 106.918 6.66797 107.301 6.90234C107.688 7.13281 107.99 7.46289 108.209 7.89258C108.428 8.31836 108.537 8.80664 108.537 9.35742C108.537 9.90039 108.428 10.3848 108.209 10.8105C107.99 11.2363 107.686 11.5664 107.295 11.8008C106.908 12.0312 106.467 12.1465 105.971 12.1465C105.537 12.1465 105.15 12.0645 104.811 11.9004C104.471 11.7363 104.209 11.5059 104.025 11.209V14.3613H103.053V6.70898H103.873L103.955 7.64648C104.131 7.31836 104.4 7.05469 104.764 6.85547C105.127 6.65234 105.533 6.55078 105.982 6.55078ZM105.801 11.2559C106.32 11.2559 106.738 11.0801 107.055 10.7285C107.371 10.377 107.529 9.91992 107.529 9.35742C107.529 8.7832 107.371 8.32422 107.055 7.98047C106.738 7.63672 106.324 7.46484 105.812 7.46484C105.293 7.46484 104.877 7.63867 104.564 7.98633C104.256 8.33398 104.102 8.80078 104.102 9.38672C104.102 9.96094 104.256 10.416 104.564 10.752C104.877 11.0879 105.289 11.2559 105.801 11.2559ZM112.193 6.66211C112.369 6.66211 112.537 6.67773 112.697 6.70898V7.55859C112.607 7.54297 112.482 7.53516 112.322 7.53516C111.842 7.53516 111.471 7.67773 111.209 7.96289C110.951 8.24805 110.822 8.64258 110.822 9.14648V12H109.826V6.70898H110.705L110.822 7.51172C110.912 7.23828 111.08 7.0293 111.326 6.88477C111.576 6.73633 111.865 6.66211 112.193 6.66211ZM118.521 10.418C118.4 10.9375 118.107 11.3555 117.643 11.6719C117.178 11.9883 116.635 12.1465 116.014 12.1465C115.479 12.1465 115.006 12.0293 114.596 11.7949C114.189 11.5566 113.873 11.2266 113.646 10.8047C113.424 10.3789 113.312 9.88867 113.312 9.33398C113.312 8.7832 113.426 8.29688 113.652 7.875C113.883 7.44922 114.199 7.12305 114.602 6.89648C115.008 6.66602 115.467 6.55078 115.979 6.55078C116.482 6.55078 116.924 6.6582 117.303 6.87305C117.682 7.08398 117.977 7.37891 118.188 7.75781C118.402 8.13672 118.51 8.57031 118.51 9.05859C118.51 9.32422 118.494 9.52539 118.463 9.66211H114.297C114.312 10.166 114.479 10.5703 114.795 10.875C115.111 11.1758 115.518 11.3262 116.014 11.3262C116.381 11.3262 116.701 11.2441 116.975 11.0801C117.252 10.916 117.443 10.6953 117.549 10.418H118.521ZM117.502 8.94141C117.494 8.46875 117.35 8.09375 117.068 7.81641C116.787 7.53516 116.42 7.39453 115.967 7.39453C115.486 7.39453 115.094 7.53516 114.789 7.81641C114.484 8.09375 114.324 8.46875 114.309 8.94141H117.502ZM121.58 12.1465C120.963 12.1465 120.455 11.998 120.057 11.7012C119.662 11.4043 119.449 11.0117 119.418 10.5234H120.391C120.414 10.7969 120.531 11.0078 120.742 11.1562C120.953 11.3047 121.232 11.3789 121.58 11.3789C121.924 11.3789 122.191 11.3105 122.383 11.1738C122.574 11.0371 122.67 10.8438 122.67 10.5938C122.67 10.3477 122.594 10.1719 122.441 10.0664C122.289 9.95703 122.094 9.87695 121.855 9.82617L120.918 9.60938C120.453 9.50391 120.109 9.32617 119.887 9.07617C119.668 8.82617 119.559 8.52148 119.559 8.16211C119.559 7.67383 119.742 7.2832 120.109 6.99023C120.48 6.69727 120.961 6.55078 121.551 6.55078C122.152 6.55078 122.639 6.70117 123.01 7.00195C123.385 7.30273 123.58 7.70117 123.596 8.19727H122.623C122.615 7.92383 122.51 7.70898 122.307 7.55273C122.107 7.39648 121.852 7.31836 121.539 7.31836C121.242 7.31836 121.006 7.38477 120.83 7.51758C120.658 7.65039 120.572 7.83594 120.572 8.07422C120.572 8.29688 120.641 8.45898 120.777 8.56055C120.918 8.66211 121.102 8.73633 121.328 8.7832L122.395 9.02344C122.836 9.12109 123.164 9.30078 123.379 9.5625C123.594 9.82031 123.701 10.1328 123.701 10.5C123.701 11.0039 123.508 11.4043 123.121 11.7012C122.738 11.998 122.225 12.1465 121.58 12.1465ZM126.818 12.1465C126.201 12.1465 125.693 11.998 125.295 11.7012C124.9 11.4043 124.688 11.0117 124.656 10.5234H125.629C125.652 10.7969 125.77 11.0078 125.98 11.1562C126.191 11.3047 126.471 11.3789 126.818 11.3789C127.162 11.3789 127.43 11.3105 127.621 11.1738C127.812 11.0371 127.908 10.8438 127.908 10.5938C127.908 10.3477 127.832 10.1719 127.68 10.0664C127.527 9.95703 127.332 9.87695 127.094 9.82617L126.156 9.60938C125.691 9.50391 125.348 9.32617 125.125 9.07617C124.906 8.82617 124.797 8.52148 124.797 8.16211C124.797 7.67383 124.98 7.2832 125.348 6.99023C125.719 6.69727 126.199 6.55078 126.789 6.55078C127.391 6.55078 127.877 6.70117 128.248 7.00195C128.623 7.30273 128.818 7.70117 128.834 8.19727H127.861C127.854 7.92383 127.748 7.70898 127.545 7.55273C127.346 7.39648 127.09 7.31836 126.777 7.31836C126.48 7.31836 126.244 7.38477 126.068 7.51758C125.896 7.65039 125.811 7.83594 125.811 8.07422C125.811 8.29688 125.879 8.45898 126.016 8.56055C126.156 8.66211 126.34 8.73633 126.566 8.7832L127.633 9.02344C128.074 9.12109 128.402 9.30078 128.617 9.5625C128.832 9.82031 128.939 10.1328 128.939 10.5C128.939 11.0039 128.746 11.4043 128.359 11.7012C127.977 11.998 127.463 12.1465 126.818 12.1465ZM136.223 4.30664C136.988 4.30664 137.596 4.53125 138.045 4.98047C138.494 5.42969 138.719 6.0293 138.719 6.7793C138.719 7.25195 138.615 7.67578 138.408 8.05078C138.205 8.42578 137.914 8.7207 137.535 8.93555C137.156 9.14648 136.711 9.25195 136.199 9.25195H134.23V12H133.188V4.30664H136.223ZM136.018 8.33789C136.529 8.33789 136.926 8.18945 137.207 7.89258C137.492 7.5918 137.635 7.20898 137.635 6.74414C137.635 6.30273 137.496 5.94336 137.219 5.66602C136.945 5.38477 136.561 5.24414 136.064 5.24414H134.23V8.33789H136.018ZM144.801 6.70898V12H143.863V11.0625C143.688 11.3906 143.418 11.6543 143.055 11.8535C142.691 12.0488 142.281 12.1465 141.824 12.1465C141.336 12.1465 140.9 12.0312 140.518 11.8008C140.139 11.5664 139.844 11.2402 139.633 10.8223C139.422 10.4004 139.316 9.91602 139.316 9.36914C139.316 8.81055 139.426 8.31836 139.645 7.89258C139.867 7.46289 140.172 7.13281 140.559 6.90234C140.945 6.66797 141.391 6.55078 141.895 6.55078C142.344 6.55078 142.74 6.64062 143.084 6.82031C143.428 7 143.695 7.24609 143.887 7.55859L143.975 6.70898H144.801ZM142.041 11.2441C142.561 11.2441 142.98 11.0703 143.301 10.7227C143.621 10.375 143.781 9.9082 143.781 9.32227C143.781 8.75586 143.623 8.30273 143.307 7.96289C142.99 7.62305 142.576 7.45312 142.064 7.45312C141.537 7.45312 141.117 7.62695 140.805 7.97461C140.492 8.32227 140.336 8.7793 140.336 9.3457C140.336 9.91211 140.492 10.3711 140.805 10.7227C141.117 11.0703 141.529 11.2441 142.041 11.2441ZM151.176 6.70898L148.756 13.0312C148.564 13.5039 148.324 13.8594 148.035 14.0977C147.746 14.3398 147.35 14.4609 146.846 14.4609C146.58 14.4609 146.305 14.4199 146.02 14.3379V13.5234C146.051 13.5312 146.129 13.5469 146.254 13.5703C146.383 13.5938 146.527 13.6055 146.688 13.6055C147.031 13.6055 147.283 13.5371 147.443 13.4004C147.604 13.2676 147.736 13.0605 147.842 12.7793L148.035 12.2754L145.768 6.70898H146.834L148.504 11.0273L150.121 6.70898H151.176ZM158.096 6.55078C158.654 6.55078 159.107 6.7207 159.455 7.06055C159.807 7.40039 159.982 7.88281 159.982 8.50781V12.0117H158.998V8.72461C158.998 8.2832 158.895 7.95508 158.688 7.74023C158.484 7.52539 158.203 7.41797 157.844 7.41797C157.453 7.41797 157.143 7.55078 156.912 7.81641C156.686 8.07812 156.572 8.39648 156.572 8.77148V12.0117H155.588V8.72461C155.588 8.31836 155.484 8 155.277 7.76953C155.07 7.53516 154.781 7.41797 154.41 7.41797C154.035 7.41797 153.732 7.55078 153.502 7.81641C153.275 8.07812 153.162 8.39258 153.162 8.75977V12.0117H152.166V6.70898H153.057L153.127 7.38281C153.279 7.125 153.492 6.92188 153.766 6.77344C154.043 6.625 154.346 6.55078 154.674 6.55078C155.072 6.55078 155.424 6.64844 155.729 6.84375C156.033 7.03516 156.25 7.29297 156.379 7.61719C156.523 7.28125 156.748 7.01953 157.053 6.83203C157.357 6.64453 157.705 6.55078 158.096 6.55078ZM166.451 10.418C166.33 10.9375 166.037 11.3555 165.572 11.6719C165.107 11.9883 164.564 12.1465 163.943 12.1465C163.408 12.1465 162.936 12.0293 162.525 11.7949C162.119 11.5566 161.803 11.2266 161.576 10.8047C161.354 10.3789 161.242 9.88867 161.242 9.33398C161.242 8.7832 161.355 8.29688 161.582 7.875C161.812 7.44922 162.129 7.12305 162.531 6.89648C162.938 6.66602 163.396 6.55078 163.908 6.55078C164.412 6.55078 164.854 6.6582 165.232 6.87305C165.611 7.08398 165.906 7.37891 166.117 7.75781C166.332 8.13672 166.439 8.57031 166.439 9.05859C166.439 9.32422 166.424 9.52539 166.393 9.66211H162.227C162.242 10.166 162.408 10.5703 162.725 10.875C163.041 11.1758 163.447 11.3262 163.943 11.3262C164.311 11.3262 164.631 11.2441 164.904 11.0801C165.182 10.916 165.373 10.6953 165.479 10.418H166.451ZM165.432 8.94141C165.424 8.46875 165.279 8.09375 164.998 7.81641C164.717 7.53516 164.35 7.39453 163.896 7.39453C163.416 7.39453 163.023 7.53516 162.719 7.81641C162.414 8.09375 162.254 8.46875 162.238 8.94141H165.432ZM170.371 6.55078C170.973 6.55078 171.453 6.74219 171.812 7.125C172.172 7.50391 172.352 8.03711 172.352 8.72461V12H171.344V8.95312C171.344 7.95312 170.939 7.45312 170.131 7.45312C169.689 7.45312 169.34 7.58594 169.082 7.85156C168.828 8.11328 168.701 8.45117 168.701 8.86523V11.9883H167.705V6.70898H168.537L168.631 7.45312C168.791 7.17969 169.029 6.96094 169.346 6.79688C169.662 6.63281 170.004 6.55078 170.371 6.55078ZM176.471 7.53516H175.428V12H174.432V7.53516H173.4V6.70898H174.432V5.30273H175.428V6.70898H176.471V7.53516ZM179.494 12.1465C178.877 12.1465 178.369 11.998 177.971 11.7012C177.576 11.4043 177.363 11.0117 177.332 10.5234H178.305C178.328 10.7969 178.445 11.0078 178.656 11.1562C178.867 11.3047 179.146 11.3789 179.494 11.3789C179.838 11.3789 180.105 11.3105 180.297 11.1738C180.488 11.0371 180.584 10.8438 180.584 10.5938C180.584 10.3477 180.508 10.1719 180.355 10.0664C180.203 9.95703 180.008 9.87695 179.77 9.82617L178.832 9.60938C178.367 9.50391 178.023 9.32617 177.801 9.07617C177.582 8.82617 177.473 8.52148 177.473 8.16211C177.473 7.67383 177.656 7.2832 178.023 6.99023C178.395 6.69727 178.875 6.55078 179.465 6.55078C180.066 6.55078 180.553 6.70117 180.924 7.00195C181.299 7.30273 181.494 7.70117 181.51 8.19727H180.537C180.529 7.92383 180.424 7.70898 180.221 7.55273C180.021 7.39648 179.766 7.31836 179.453 7.31836C179.156 7.31836 178.92 7.38477 178.744 7.51758C178.572 7.65039 178.486 7.83594 178.486 8.07422C178.486 8.29688 178.555 8.45898 178.691 8.56055C178.832 8.66211 179.016 8.73633 179.242 8.7832L180.309 9.02344C180.75 9.12109 181.078 9.30078 181.293 9.5625C181.508 9.82031 181.615 10.1328 181.615 10.5C181.615 11.0039 181.422 11.4043 181.035 11.7012C180.652 11.998 180.139 12.1465 179.494 12.1465ZM185.57 6.41016C185.57 5.73047 185.811 5.18555 186.291 4.77539C186.771 4.36133 187.404 4.1543 188.189 4.1543C188.701 4.1543 189.154 4.24609 189.549 4.42969C189.947 4.61328 190.256 4.87109 190.475 5.20312C190.693 5.53516 190.803 5.91602 190.803 6.3457H189.736C189.729 5.95508 189.58 5.64258 189.291 5.4082C189.006 5.16992 188.627 5.05078 188.154 5.05078C187.697 5.05078 187.332 5.16602 187.059 5.39648C186.789 5.62305 186.654 5.91992 186.654 6.28711C186.654 6.66211 186.77 6.93164 187 7.0957C187.234 7.25977 187.531 7.38672 187.891 7.47656L189.186 7.82227C189.674 7.94336 190.098 8.16992 190.457 8.50195C190.816 8.83398 190.996 9.29688 190.996 9.89062C190.996 10.5781 190.744 11.127 190.24 11.5371C189.736 11.9434 189.064 12.1465 188.225 12.1465C187.416 12.1465 186.756 11.9512 186.244 11.5605C185.732 11.166 185.453 10.625 185.406 9.9375H186.496C186.504 10.3516 186.672 10.6777 187 10.916C187.328 11.1504 187.748 11.2676 188.26 11.2676C188.771 11.2676 189.176 11.1523 189.473 10.9219C189.77 10.6875 189.918 10.375 189.918 9.98438C189.918 9.625 189.809 9.36133 189.59 9.19336C189.375 9.02539 189.104 8.89258 188.775 8.79492L187.469 8.46094C186.926 8.32422 186.473 8.0918 186.109 7.76367C185.75 7.43555 185.57 6.98438 185.57 6.41016ZM191.852 9.35742C191.852 8.83008 191.971 8.35547 192.209 7.93359C192.451 7.50781 192.787 7.17188 193.217 6.92578C193.65 6.67578 194.143 6.55078 194.693 6.55078C195.244 6.55078 195.738 6.67578 196.176 6.92578C196.613 7.17188 196.951 7.50781 197.189 7.93359C197.432 8.35547 197.553 8.83008 197.553 9.35742C197.553 9.87695 197.43 10.3496 197.184 10.7754C196.941 11.2012 196.604 11.5371 196.17 11.7832C195.74 12.0254 195.248 12.1465 194.693 12.1465C194.15 12.1465 193.662 12.0254 193.229 11.7832C192.799 11.5371 192.461 11.2031 192.215 10.7812C191.973 10.3555 191.852 9.88086 191.852 9.35742ZM192.883 9.35742C192.883 9.9043 193.053 10.3574 193.393 10.7168C193.732 11.0762 194.166 11.2559 194.693 11.2559C195.236 11.2559 195.678 11.0762 196.018 10.7168C196.361 10.3574 196.533 9.9043 196.533 9.35742C196.533 8.80664 196.363 8.34961 196.023 7.98633C195.684 7.62305 195.24 7.44141 194.693 7.44141C194.166 7.44141 193.732 7.62305 193.393 7.98633C193.053 8.34961 192.883 8.80664 192.883 9.35742ZM198.865 3.76758H199.861V12H198.865V3.76758ZM206.002 6.70898V12H205.188L205.094 11.2324C204.926 11.5371 204.693 11.7656 204.396 11.918C204.1 12.0703 203.76 12.1465 203.377 12.1465C202.76 12.1465 202.281 11.9629 201.941 11.5957C201.602 11.2246 201.432 10.7266 201.432 10.1016V6.70898H202.428V9.91406C202.428 10.4023 202.537 10.75 202.756 10.957C202.979 11.1641 203.289 11.2676 203.688 11.2676C204.086 11.2676 204.404 11.1309 204.643 10.8574C204.885 10.5801 205.006 10.2129 205.006 9.75586V6.70898H206.002ZM211.75 3.94922C211.965 3.94922 212.141 4.01758 212.277 4.1543C212.414 4.28711 212.482 4.45508 212.482 4.6582C212.482 4.86523 212.414 5.03906 212.277 5.17969C212.141 5.32031 211.965 5.39062 211.75 5.39062C211.535 5.39062 211.357 5.32031 211.217 5.17969C211.076 5.03906 211.006 4.86523 211.006 4.6582C211.006 4.45898 211.076 4.29102 211.217 4.1543C211.357 4.01758 211.535 3.94922 211.75 3.94922ZM209.096 6.70898H212.242V12H211.246V7.53516H209.096V12H208.088V7.53516H207.057V6.70898H208.088V5.30273H209.096V6.70898ZM213.59 9.35742C213.59 8.83008 213.709 8.35547 213.947 7.93359C214.189 7.50781 214.525 7.17188 214.955 6.92578C215.389 6.67578 215.881 6.55078 216.432 6.55078C216.982 6.55078 217.477 6.67578 217.914 6.92578C218.352 7.17188 218.689 7.50781 218.928 7.93359C219.17 8.35547 219.291 8.83008 219.291 9.35742C219.291 9.87695 219.168 10.3496 218.922 10.7754C218.68 11.2012 218.342 11.5371 217.908 11.7832C217.479 12.0254 216.986 12.1465 216.432 12.1465C215.889 12.1465 215.4 12.0254 214.967 11.7832C214.537 11.5371 214.199 11.2031 213.953 10.7812C213.711 10.3555 213.59 9.88086 213.59 9.35742ZM214.621 9.35742C214.621 9.9043 214.791 10.3574 215.131 10.7168C215.471 11.0762 215.904 11.2559 216.432 11.2559C216.975 11.2559 217.416 11.0762 217.756 10.7168C218.1 10.3574 218.271 9.9043 218.271 9.35742C218.271 8.80664 218.102 8.34961 217.762 7.98633C217.422 7.62305 216.979 7.44141 216.432 7.44141C215.904 7.44141 215.471 7.62305 215.131 7.98633C214.791 8.34961 214.621 8.80664 214.621 9.35742ZM223.234 6.55078C223.836 6.55078 224.316 6.74219 224.676 7.125C225.035 7.50391 225.215 8.03711 225.215 8.72461V12H224.207V8.95312C224.207 7.95312 223.803 7.45312 222.994 7.45312C222.553 7.45312 222.203 7.58594 221.945 7.85156C221.691 8.11328 221.564 8.45117 221.564 8.86523V11.9883H220.568V6.70898H221.4L221.494 7.45312C221.654 7.17969 221.893 6.96094 222.209 6.79688C222.525 6.63281 222.867 6.55078 223.234 6.55078ZM228.607 12.1465C227.99 12.1465 227.482 11.998 227.084 11.7012C226.689 11.4043 226.477 11.0117 226.445 10.5234H227.418C227.441 10.7969 227.559 11.0078 227.77 11.1562C227.98 11.3047 228.26 11.3789 228.607 11.3789C228.951 11.3789 229.219 11.3105 229.41 11.1738C229.602 11.0371 229.697 10.8438 229.697 10.5938C229.697 10.3477 229.621 10.1719 229.469 10.0664C229.316 9.95703 229.121 9.87695 228.883 9.82617L227.945 9.60938C227.48 9.50391 227.137 9.32617 226.914 9.07617C226.695 8.82617 226.586 8.52148 226.586 8.16211C226.586 7.67383 226.77 7.2832 227.137 6.99023C227.508 6.69727 227.988 6.55078 228.578 6.55078C229.18 6.55078 229.666 6.70117 230.037 7.00195C230.412 7.30273 230.607 7.70117 230.623 8.19727H229.65C229.643 7.92383 229.537 7.70898 229.334 7.55273C229.135 7.39648 228.879 7.31836 228.566 7.31836C228.27 7.31836 228.033 7.38477 227.857 7.51758C227.686 7.65039 227.6 7.83594 227.6 8.07422C227.6 8.29688 227.668 8.45898 227.805 8.56055C227.945 8.66211 228.129 8.73633 228.355 8.7832L229.422 9.02344C229.863 9.12109 230.191 9.30078 230.406 9.5625C230.621 9.82031 230.729 10.1328 230.729 10.5C230.729 11.0039 230.535 11.4043 230.148 11.7012C229.766 11.998 229.252 12.1465 228.607 12.1465ZM239.225 11.0508V12H234.977V4.30664H236.02V11.0508H239.225ZM240.854 5.41406C240.646 5.41406 240.473 5.34375 240.332 5.20312C240.191 5.0625 240.121 4.88867 240.121 4.68164C240.121 4.48242 240.191 4.31445 240.332 4.17773C240.473 4.04102 240.646 3.97266 240.854 3.97266C241.068 3.97266 241.244 4.04102 241.381 4.17773C241.518 4.31445 241.586 4.48242 241.586 4.68164C241.586 4.88086 241.518 5.05273 241.381 5.19727C241.248 5.3418 241.072 5.41406 240.854 5.41406ZM240.361 6.70898H241.357V12H240.361V6.70898ZM248.975 6.55078C249.533 6.55078 249.986 6.7207 250.334 7.06055C250.686 7.40039 250.861 7.88281 250.861 8.50781V12.0117H249.877V8.72461C249.877 8.2832 249.773 7.95508 249.566 7.74023C249.363 7.52539 249.082 7.41797 248.723 7.41797C248.332 7.41797 248.021 7.55078 247.791 7.81641C247.564 8.07812 247.451 8.39648 247.451 8.77148V12.0117H246.467V8.72461C246.467 8.31836 246.363 8 246.156 7.76953C245.949 7.53516 245.66 7.41797 245.289 7.41797C244.914 7.41797 244.611 7.55078 244.381 7.81641C244.154 8.07812 244.041 8.39258 244.041 8.75977V12.0117H243.045V6.70898H243.936L244.006 7.38281C244.158 7.125 244.371 6.92188 244.645 6.77344C244.922 6.625 245.225 6.55078 245.553 6.55078C245.951 6.55078 246.303 6.64844 246.607 6.84375C246.912 7.03516 247.129 7.29297 247.258 7.61719C247.402 7.28125 247.627 7.01953 247.932 6.83203C248.236 6.64453 248.584 6.55078 248.975 6.55078ZM252.994 5.41406C252.787 5.41406 252.613 5.34375 252.473 5.20312C252.332 5.0625 252.262 4.88867 252.262 4.68164C252.262 4.48242 252.332 4.31445 252.473 4.17773C252.613 4.04102 252.787 3.97266 252.994 3.97266C253.209 3.97266 253.385 4.04102 253.521 4.17773C253.658 4.31445 253.727 4.48242 253.727 4.68164C253.727 4.88086 253.658 5.05273 253.521 5.19727C253.389 5.3418 253.213 5.41406 252.994 5.41406ZM252.502 6.70898H253.498V12H252.502V6.70898ZM257.693 7.53516H256.65V12H255.654V7.53516H254.623V6.70898H255.654V5.30273H256.65V6.70898H257.693V7.53516ZM263.564 10.418C263.443 10.9375 263.15 11.3555 262.686 11.6719C262.221 11.9883 261.678 12.1465 261.057 12.1465C260.521 12.1465 260.049 12.0293 259.639 11.7949C259.232 11.5566 258.916 11.2266 258.689 10.8047C258.467 10.3789 258.355 9.88867 258.355 9.33398C258.355 8.7832 258.469 8.29688 258.695 7.875C258.926 7.44922 259.242 7.12305 259.645 6.89648C260.051 6.66602 260.51 6.55078 261.021 6.55078C261.525 6.55078 261.967 6.6582 262.346 6.87305C262.725 7.08398 263.02 7.37891 263.23 7.75781C263.445 8.13672 263.553 8.57031 263.553 9.05859C263.553 9.32422 263.537 9.52539 263.506 9.66211H259.34C259.355 10.166 259.521 10.5703 259.838 10.875C260.154 11.1758 260.561 11.3262 261.057 11.3262C261.424 11.3262 261.744 11.2441 262.018 11.0801C262.295 10.916 262.486 10.6953 262.592 10.418H263.564ZM262.545 8.94141C262.537 8.46875 262.393 8.09375 262.111 7.81641C261.83 7.53516 261.463 7.39453 261.01 7.39453C260.529 7.39453 260.137 7.53516 259.832 7.81641C259.527 8.09375 259.367 8.46875 259.352 8.94141H262.545ZM269.945 3.76758V12H269.131L269.043 11.0508C268.875 11.3789 268.609 11.6445 268.246 11.8477C267.883 12.0469 267.473 12.1465 267.016 12.1465C266.52 12.1465 266.078 12.0312 265.691 11.8008C265.305 11.5664 265.002 11.2383 264.783 10.8164C264.568 10.3906 264.461 9.90039 264.461 9.3457C264.461 8.79492 264.57 8.30859 264.789 7.88672C265.012 7.46094 265.316 7.13281 265.703 6.90234C266.09 6.66797 266.531 6.55078 267.027 6.55078C267.469 6.55078 267.859 6.63477 268.199 6.80273C268.539 6.9707 268.801 7.20312 268.984 7.5V3.76758H269.945ZM267.186 11.2441C267.705 11.2441 268.125 11.0703 268.445 10.7227C268.766 10.375 268.926 9.9082 268.926 9.32227C268.926 8.75586 268.768 8.30273 268.451 7.96289C268.135 7.62305 267.721 7.45312 267.209 7.45312C266.682 7.45312 266.262 7.62695 265.949 7.97461C265.637 8.32227 265.48 8.7793 265.48 9.3457C265.48 9.91211 265.637 10.3711 265.949 10.7227C266.262 11.0703 266.674 11.2441 267.186 11.2441Z" fill="#182A2C"/>
</svg>
