<svg width="30" height="30" viewBox="0 0 30 30" fill="none" xmlns="http://www.w3.org/2000/svg">
<path d="M15 0.00102234C6.7251 0.00103494 8.81893e-06 6.72527 0 14.9994C-1.63779e-05 23.2736 6.72509 29.9982 15 29.9982C23.2749 29.9982 30 23.2736 30 14.9994C30 6.72525 23.2749 0.00100974 15 0.00102234ZM15 1.57825C22.4226 1.57823 28.4227 7.57775 28.4227 14.9994C28.4228 22.4211 22.4226 28.421 15 28.4209C7.5774 28.4209 1.57725 22.4211 1.57726 14.9994C1.57727 7.57776 7.57742 1.57826 15 1.57825Z" fill="#F8F8F8"/>
<path d="M14.9996 0C12.1376 -1.25984e-05 9.61226 1.79841 7.85414 4.52371C6.09602 7.24903 5.043 10.9382 5.043 15C5.04299 19.0618 6.09602 22.7513 7.85414 25.4766C9.61226 28.2019 12.1376 30 14.9996 30C17.8615 30 20.3869 28.2019 22.145 25.4766C23.9031 22.7513 24.9561 19.0618 24.9561 15C24.9561 10.9382 23.9031 7.24903 22.145 4.52371C20.3869 1.79841 17.8615 0 14.9996 0ZM14.9996 1.57726C17.2009 1.57726 19.2596 2.96054 20.8197 5.37874C22.3797 7.79695 23.3788 11.2131 23.3789 15C23.3789 18.7869 22.3797 22.2033 20.8197 24.6216C19.2596 27.0398 17.2009 28.423 14.9996 28.423C12.7982 28.423 10.7395 27.0398 9.17946 24.6216C7.61945 22.2033 6.62026 18.7869 6.62026 15C6.62026 11.2131 7.61945 7.79695 9.17946 5.37874C10.7395 2.96054 12.7983 1.57726 14.9996 1.57726Z" fill="#F8F8F8"/>
<path d="M1.17637 14.2113C1.07194 14.21 0.968292 14.2294 0.871427 14.2684C0.774562 14.3075 0.686413 14.3653 0.612093 14.4387C0.537773 14.512 0.478763 14.5995 0.438487 14.6958C0.398212 14.7922 0.377472 14.8955 0.377472 15C0.377472 15.1044 0.398212 15.2078 0.438487 15.3042C0.478763 15.4005 0.537773 15.4879 0.612093 15.5613C0.686413 15.6346 0.774562 15.6925 0.871427 15.7315C0.968292 15.7706 1.07194 15.79 1.17637 15.7886H28.992C29.0964 15.79 29.2 15.7706 29.2969 15.7315C29.3938 15.6925 29.4819 15.6346 29.5562 15.5613C29.6305 15.4879 29.6896 15.4005 29.7298 15.3042C29.7701 15.2078 29.7908 15.1044 29.7908 15C29.7908 14.8955 29.7701 14.7922 29.7298 14.6958C29.6896 14.5995 29.6305 14.512 29.5562 14.4387C29.4819 14.3653 29.3938 14.3075 29.2969 14.2684C29.2 14.2294 29.0964 14.21 28.992 14.2113H1.17637Z" fill="#F8F8F8"/>
<path d="M15.0713 0.292785C14.8624 0.295957 14.6632 0.381948 14.5175 0.531889C14.3719 0.68183 14.2918 0.883452 14.2947 1.09245V28.908C14.2933 29.0125 14.3126 29.1162 14.3516 29.2131C14.3906 29.31 14.4485 29.3982 14.5219 29.4726C14.5953 29.5469 14.6827 29.606 14.779 29.6463C14.8754 29.6866 14.9789 29.7073 15.0833 29.7073C15.1878 29.7073 15.2912 29.6866 15.3876 29.6463C15.484 29.606 15.5714 29.5469 15.6448 29.4726C15.7181 29.3982 15.776 29.31 15.815 29.2131C15.854 29.1162 15.8734 29.0125 15.872 28.908V1.09245C15.8734 0.986949 15.8537 0.8822 15.814 0.78445C15.7743 0.686699 15.7154 0.597919 15.6407 0.523354C15.566 0.448788 15.4772 0.389949 15.3794 0.350341C15.2816 0.310733 15.1769 0.291183 15.0713 0.292785Z" fill="#F8F8F8"/>
<path d="M2.70028 7.71504C2.59582 7.71362 2.49212 7.73298 2.3952 7.77198C2.29828 7.81098 2.21007 7.86885 2.1357 7.94222C2.06133 8.01559 2.00228 8.10301 1.96197 8.1994C1.92166 8.29578 1.90091 8.3992 1.90091 8.50367C1.90091 8.60814 1.92166 8.7116 1.96197 8.80798C2.00228 8.90436 2.06133 8.99178 2.1357 9.06515C2.21007 9.13853 2.29828 9.19636 2.3952 9.23536C2.49212 9.27436 2.59582 9.29371 2.70028 9.2923H27.4652C27.5697 9.29371 27.6734 9.27436 27.7703 9.23536C27.8672 9.19636 27.9554 9.13853 28.0298 9.06515C28.1042 8.99178 28.1632 8.90436 28.2035 8.80798C28.2439 8.7116 28.2646 8.60814 28.2646 8.50367C28.2646 8.3992 28.2439 8.29578 28.2035 8.1994C28.1632 8.10301 28.1042 8.01559 28.0298 7.94222C27.9554 7.86885 27.8672 7.81098 27.7703 7.77198C27.6734 7.73298 27.5697 7.71362 27.4652 7.71504H2.70028Z" fill="#F8F8F8"/>
<path d="M2.82205 20.7073C2.71758 20.7059 2.61388 20.7252 2.51696 20.7642C2.42004 20.8032 2.33184 20.8611 2.25746 20.9345C2.18309 21.0078 2.12404 21.0953 2.08374 21.1916C2.04343 21.288 2.02267 21.3914 2.02267 21.4959C2.02267 21.6004 2.04343 21.7038 2.08374 21.8002C2.12404 21.8966 2.18309 21.984 2.25746 22.0574C2.33184 22.1307 2.42004 22.1886 2.51696 22.2276C2.61388 22.2666 2.71758 22.286 2.82205 22.2846H27.3459C27.4504 22.286 27.5541 22.2666 27.651 22.2276C27.748 22.1886 27.8362 22.1307 27.9105 22.0574C27.9849 21.984 28.044 21.8966 28.0843 21.8002C28.1246 21.7038 28.1453 21.6004 28.1453 21.4959C28.1453 21.3914 28.1246 21.288 28.0843 21.1916C28.044 21.0953 27.9849 21.0078 27.9105 20.9345C27.8362 20.8611 27.748 20.8032 27.651 20.7642C27.5541 20.7252 27.4504 20.7059 27.3459 20.7073H2.82205Z" fill="#F8F8F8"/>
</svg>
