<svg width="30" height="30" viewBox="0 0 30 30" fill="none" xmlns="http://www.w3.org/2000/svg">
<path d="M22.4647 30C18.3098 30 14.9296 26.6177 14.9296 22.4602C14.9296 18.3053 18.3098 14.925 22.4647 14.925C26.6196 14.925 29.9999 18.3053 29.9999 22.4602C29.9999 26.6177 26.6196 30 22.4647 30ZM22.4647 16.125C18.9714 16.125 16.1296 18.9668 16.1296 22.4602C16.1296 25.9559 18.9714 28.8 22.4647 28.8C25.9581 28.8 28.7999 25.9559 28.7999 22.4602C28.7999 18.9668 25.9581 16.125 22.4647 16.125Z" fill="#F8F8F8"/>
<path d="M22.4651 26.7924C21.106 26.7924 20 25.6865 20 24.3274C20 23.9961 20.2687 23.7274 20.6 23.7274C20.9314 23.7274 21.2 23.9961 21.2 24.3274C21.2 25.025 21.7675 25.5924 22.4651 25.5924C23.1623 25.5924 23.7298 25.025 23.7298 24.3274C23.7298 23.6301 23.1623 23.0627 22.4651 23.0627C21.106 23.0627 20 21.9567 20 20.5976C20 19.2385 21.106 18.1329 22.4651 18.1329C23.8242 18.1329 24.9298 19.2385 24.9298 20.5976C24.9298 20.929 24.6612 21.1976 24.3298 21.1976C23.9985 21.1976 23.7298 20.929 23.7298 20.5976C23.7298 19.9004 23.1623 19.3329 22.4651 19.3329C21.7675 19.3329 21.2 19.9004 21.2 20.5976C21.2 21.2952 21.7675 21.8627 22.4651 21.8627C23.8242 21.8627 24.9298 22.9683 24.9298 24.3274C24.9298 25.6865 23.8242 26.7924 22.4651 26.7924Z" fill="#F8F8F8"/>
<path d="M22.4651 27.7688C22.1338 27.7688 21.8651 27.5001 21.8651 27.1688V26.1923C21.8651 25.861 22.1338 25.5923 22.4651 25.5923C22.7965 25.5923 23.0651 25.861 23.0651 26.1923V27.1688C23.0651 27.5001 22.7965 27.7688 22.4651 27.7688Z" fill="#F8F8F8"/>
<path d="M22.4651 19.3327C22.1338 19.3327 21.8651 19.0641 21.8651 18.7327V17.7563C21.8651 17.4249 22.1338 17.1563 22.4651 17.1563C22.7965 17.1563 23.0651 17.4249 23.0651 17.7563V18.7327C23.0651 19.0641 22.7965 19.3327 22.4651 19.3327Z" fill="#F8F8F8"/>
<path d="M7.53692 15.0721C3.38145 15.0721 0.00088501 11.6915 0.00088501 7.53604C0.00088501 3.38057 3.38145 0 7.53692 0C11.6892 0 15.0671 3.38057 15.0671 7.53604C15.0671 11.6915 11.6892 15.0721 7.53692 15.0721ZM7.53692 1.2C4.04327 1.2 1.20089 4.04238 1.20089 7.53604C1.20089 11.0297 4.04327 13.8721 7.53692 13.8721C11.0274 13.8721 13.8671 11.0297 13.8671 7.53604C13.8671 4.04238 11.0274 1.2 7.53692 1.2Z" fill="#F8F8F8"/>
<path d="M9.45586 28.164H9.45C4.23926 28.164 0 23.9247 0 18.714C0 18.3826 0.268652 18.114 0.6 18.114C0.931348 18.114 1.2 18.3826 1.2 18.714C1.2 23.2629 4.90107 26.964 9.45 26.964C9.78135 26.964 10.0529 27.2326 10.0529 27.564C10.0529 27.8953 9.78721 28.164 9.45586 28.164Z" fill="#F8F8F8"/>
<path d="M8.6851 30.0001C8.53158 30.0001 8.37807 29.9415 8.26088 29.8243C8.0265 29.5899 8.0265 29.2102 8.26088 28.9759L9.6727 27.564L8.26088 26.1522C8.0265 25.9178 8.0265 25.5382 8.26088 25.3038C8.49525 25.0694 8.87494 25.0694 9.10932 25.3038L10.9454 27.1398C11.1797 27.3742 11.1797 27.7539 10.9454 27.9883L9.10932 29.8243C8.99213 29.9415 8.83861 30.0001 8.6851 30.0001Z" fill="#F8F8F8"/>
<path d="M29.4 11.8345C29.0686 11.8345 28.8 11.5658 28.8 11.2345C28.8 6.68553 25.0989 2.98445 20.55 2.98445C20.2186 2.98445 19.9467 2.7158 19.9467 2.38445C19.9467 2.05311 20.2125 1.78445 20.5438 1.78445H20.55C25.7607 1.78445 30 6.02371 30 11.2345C30 11.5658 29.7313 11.8345 29.4 11.8345Z" fill="#F8F8F8"/>
<path d="M22.0598 4.87061C21.901 4.87061 21.7425 4.80791 21.6247 4.6837L19.8338 2.79756C19.7239 2.68184 19.6647 2.52744 19.6691 2.36807C19.6735 2.2084 19.7412 2.05752 19.8572 1.94795L21.7492 0.16348C21.99 -0.0638637 22.3697 -0.0527309 22.5974 0.188382C22.8247 0.429496 22.8136 0.809183 22.5725 1.03653L21.1185 2.40791L22.4948 3.85752C22.723 4.09776 22.7131 4.47745 22.4729 4.70567C22.3568 4.81582 22.2083 4.87061 22.0598 4.87061Z" fill="#F8F8F8"/>
<path d="M7.53987 7.07049C7.38078 7.07049 7.22815 7.00721 7.11565 6.89471L4.29875 4.07811C4.06438 3.84373 4.06438 3.46405 4.29875 3.22967C4.53313 2.9953 4.91281 2.9953 5.14719 3.22967L7.53899 5.62117L9.9217 3.23026C10.1555 2.99559 10.5355 2.99471 10.7704 3.22879C11.0051 3.46287 11.0057 3.84285 10.7719 4.07752L7.96496 6.89412C7.85246 7.00692 7.69983 7.07049 7.54045 7.07049C7.54016 7.07049 7.54016 7.07049 7.53987 7.07049Z" fill="#F8F8F8"/>
<path d="M7.53941 12.0184C7.20806 12.0184 6.93941 11.7497 6.93941 11.4184V6.4707C6.93941 6.13935 7.20806 5.8707 7.53941 5.8707C7.87076 5.8707 8.13941 6.13935 8.13941 6.4707V11.4184C8.13941 11.7497 7.87076 12.0184 7.53941 12.0184Z" fill="#F8F8F8"/>
<path d="M9.18965 8.46303H5.88877C5.55742 8.46303 5.28877 8.19438 5.28877 7.86303C5.28877 7.53168 5.55742 7.26303 5.88877 7.26303H9.18965C9.521 7.26303 9.78965 7.53168 9.78965 7.86303C9.78965 8.19438 9.521 8.46303 9.18965 8.46303Z" fill="#F8F8F8"/>
<path d="M9.18942 10.626H5.88854C5.5572 10.626 5.28854 10.3573 5.28854 10.026C5.28854 9.69462 5.5572 9.42596 5.88854 9.42596H9.18942C9.52077 9.42596 9.78942 9.69462 9.78942 10.026C9.78942 10.3573 9.52077 10.626 9.18942 10.626Z" fill="#F8F8F8"/>
</svg>
