<svg width="30" height="26" viewBox="0 0 30 26" fill="none" xmlns="http://www.w3.org/2000/svg">
<path d="M1.64199 13.8775C0.65251 14.768 -0.633816 13.2838 0.355666 12.3933L14.3074 0.222633C14.7032 -0.0742112 15.1979 -0.0742112 15.5937 0.222633L29.6443 12.3933C30.6338 13.2838 29.3475 14.768 28.358 13.8775L25.5875 11.5027V23.1786C25.5875 24.5639 24.499 25.6523 23.1138 25.6523H18.6611C18.1663 25.6523 17.8695 25.2565 17.8695 24.8607V17.2417H12.1305V24.8607C12.1305 25.2565 11.7347 25.6523 11.24 25.6523H6.88625C5.50097 25.6523 4.31359 24.5639 4.31359 23.1786V11.5027L1.64199 13.8775ZM5.99571 9.72166V23.1786C5.99571 23.5744 6.39151 23.9702 6.88625 23.9702H10.4484V16.4501C10.4484 15.9554 10.7452 15.6586 11.24 15.6586H18.6611C19.1558 15.6586 19.5516 15.9554 19.5516 16.4501V23.9702H23.1138C23.5095 23.9702 23.9053 23.5744 23.9053 23.1786V9.72166L15 1.90475L5.99571 9.72166Z" fill="#F8F8F8"/>
</svg>
