<svg width="22" height="30" viewBox="0 0 22 30" fill="none" xmlns="http://www.w3.org/2000/svg">
<path d="M2.61862 10.3347C2.31388 10.3347 2.06706 10.5592 2.06706 10.8365C2.06706 11.1138 2.31526 11.3384 2.61862 11.3384H18.9352C19.2399 11.3384 19.4867 11.1138 19.4867 10.8365C19.4867 10.5592 19.2385 10.3347 18.9352 10.3347H2.61862Z" fill="#F8F8F8"/>
<path d="M2.61862 14.1938H18.9352C19.2399 14.1938 19.4867 13.9692 19.4867 13.692C19.4867 13.4147 19.2385 13.1901 18.9352 13.1901H2.61862C2.31388 13.1901 2.06706 13.4147 2.06706 13.692C2.06706 13.9692 2.31388 14.1938 2.61862 14.1938Z" fill="#F8F8F8"/>
<path d="M10.6617 16.047H2.61862C2.31388 16.047 2.06706 16.2715 2.06706 16.5488C2.06706 16.8261 2.31526 17.0507 2.61862 17.0507H10.6617C10.9665 17.0507 11.2133 16.8261 11.2133 16.5488C11.2133 16.2715 10.9665 16.047 10.6617 16.047Z" fill="#F8F8F8"/>
<path d="M10.6617 18.9026H2.61862C2.31388 18.9026 2.06706 19.1272 2.06706 19.4044C2.06706 19.6817 2.31526 19.9063 2.61862 19.9063H10.6617C10.9665 19.9063 11.2133 19.6817 11.2133 19.4044C11.2133 19.1272 10.9665 18.9026 10.6617 18.9026Z" fill="#F8F8F8"/>
<path d="M10.6617 21.7597H2.61862C2.31388 21.7597 2.06706 21.9842 2.06706 22.2615C2.06706 22.5388 2.31526 22.7634 2.61862 22.7634H10.6617C10.9665 22.7634 11.2133 22.5388 11.2133 22.2615C11.2133 21.9842 10.9665 21.7597 10.6617 21.7597Z" fill="#F8F8F8"/>
<path d="M10.6617 24.6163H2.61862C2.31388 24.6163 2.06706 24.8409 2.06706 25.1181C2.06706 25.3954 2.31526 25.62 2.61862 25.62H10.6617C10.9665 25.62 11.2133 25.3954 11.2133 25.1181C11.2133 24.8409 10.9665 24.6163 10.6617 24.6163Z" fill="#F8F8F8"/>
<path d="M18.4025 18.8324C18.4025 19.1097 18.6507 19.3343 18.9541 19.3343C19.2574 19.3343 19.5056 19.1097 19.5056 18.8324C19.5056 17.6016 18.3212 16.5815 16.7671 16.3683V16.1236C16.7671 15.8463 16.5189 15.6217 16.2156 15.6217C15.9122 15.6217 15.664 15.8463 15.664 16.1236V16.3607C14.0659 16.5464 12.8359 17.5777 12.8359 18.8311C12.8359 20.0833 14.0659 21.1159 15.664 21.3015V24.2901C14.725 24.112 14.03 23.5361 14.03 22.846C14.03 22.5687 13.7818 22.3442 13.4785 22.3442C13.1751 22.3442 12.9269 22.5687 12.9269 22.846C12.9269 24.0756 14.11 25.0969 15.664 25.3102V25.5536C15.664 25.8308 15.9122 26.0554 16.2156 26.0554C16.5189 26.0554 16.7671 25.8308 16.7671 25.5536V25.3164C18.3653 25.1307 19.5966 24.0994 19.5966 22.846C19.5966 21.5926 18.3653 20.56 16.7671 20.3756V17.387C17.7076 17.5652 18.4025 18.1423 18.4025 18.8324ZM13.9404 18.8324C13.9404 18.121 14.6781 17.525 15.664 17.3695V20.2953C14.6781 20.1385 13.9404 19.5438 13.9404 18.8324ZM18.4935 22.846C18.4935 23.5587 17.7544 24.1534 16.7685 24.3089V21.3818C17.7544 21.5387 18.4935 22.1346 18.4935 22.846Z" fill="#F8F8F8"/>
<path d="M21.111 0H7.74804C7.67358 0 7.60188 0.0138012 7.53431 0.0388942C7.4833 0.057714 7.44055 0.0890803 7.39918 0.120447C7.38677 0.130484 7.36885 0.135502 7.35644 0.146794L0.161332 6.69483C0.1503 6.70486 0.144785 6.71867 0.135132 6.72996C0.0992809 6.76885 0.0648085 6.809 0.0427461 6.85668C0.0151681 6.9169 0 6.98214 0 7.04989V29.4981C0 29.6725 0.0992809 29.8344 0.261991 29.9247C0.423323 30.0163 0.6274 30.0238 0.798384 29.9473L2.60888 29.1243L4.41938 29.9473C4.57244 30.0176 4.75859 30.0176 4.91164 29.9473L6.72214 29.1243L8.53126 29.9473C8.68432 30.0176 8.87047 30.0176 9.02353 29.9473L10.8313 29.123L12.6418 29.9461C12.719 29.9812 12.8031 29.9987 12.8886 29.9987C12.9741 29.9987 13.0582 29.9812 13.1354 29.9461L14.9459 29.123L16.755 29.9461C16.9081 30.0163 17.0942 30.0163 17.2473 29.9461L19.0578 29.123L20.8683 29.9461C21.0406 30.0238 21.242 30.0151 21.4047 29.9235C21.5674 29.8319 21.6667 29.67 21.6667 29.4969V0.501861C21.6625 0.224583 21.4157 0 21.111 0ZM7.1951 1.71386V6.54803H1.88358L7.1951 1.71386ZM20.5594 28.6851L19.3019 28.113C19.146 28.0427 18.9626 28.0427 18.8096 28.113L16.9991 28.9361L15.19 28.113C15.0369 28.0427 14.8508 28.0427 14.6977 28.113L12.8872 28.9361L11.0767 28.113C11.0009 28.0779 10.9168 28.0603 10.8313 28.0603C10.7458 28.0603 10.6617 28.0779 10.5844 28.113L8.77395 28.9361L6.96483 28.113C6.81177 28.0427 6.62562 28.0427 6.47256 28.113L4.66206 28.9361L2.85157 28.113C2.69851 28.0427 2.51236 28.0427 2.3593 28.113L1.10174 28.6864V7.5505H7.74529C8.05002 7.5505 8.29685 7.32592 8.29685 7.04864V1.00372H20.5567V28.6851H20.5594Z" fill="#F8F8F8"/>
</svg>
