<svg width="13" height="9" viewBox="0 0 13 9" fill="none" xmlns="http://www.w3.org/2000/svg">
<path d="M12.7904 0H0.209589C0.0938889 0 0 0.0938888 0 0.209733V8.45231C0 8.56816 0.0938889 8.66204 0.209589 8.66204H12.7904C12.9061 8.66204 13 8.56816 13 8.45231V0.209733C13 0.0938888 12.9061 0 12.7904 0ZM12.5807 8.24272H0.419322V0.419322H12.5805V8.24272H12.5807Z" fill="#F8F8F8"/>
<path d="M7.08513 2.03097H11.5339C11.611 2.03097 11.6736 1.96842 11.6736 1.89129C11.6736 1.81401 11.611 1.75146 11.5339 1.75146H7.08513C7.00786 1.75146 6.94531 1.81401 6.94531 1.89129C6.94531 1.96857 7.00786 2.03097 7.08513 2.03097Z" fill="#F8F8F8"/>
<path d="M7.08513 3.65733H11.5339C11.611 3.65733 11.6736 3.59479 11.6736 3.51751C11.6736 3.44023 11.611 3.37769 11.5339 3.37769H7.08513C7.00786 3.37769 6.94531 3.44023 6.94531 3.51751C6.94531 3.59479 7.00786 3.65733 7.08513 3.65733Z" fill="#F8F8F8"/>
<path d="M7.08513 5.28428H11.5339C11.611 5.28428 11.6736 5.22174 11.6736 5.14446C11.6736 5.06718 11.611 5.00464 11.5339 5.00464H7.08513C7.00786 5.00464 6.94531 5.06718 6.94531 5.14446C6.94531 5.22174 7.00786 5.28428 7.08513 5.28428Z" fill="#F8F8F8"/>
<path d="M7.08513 6.91036H11.5339C11.611 6.91036 11.6736 6.84782 11.6736 6.77054C11.6736 6.6934 11.611 6.63086 11.5339 6.63086H7.08513C7.00786 6.63086 6.94531 6.6934 6.94531 6.77054C6.94531 6.84796 7.00786 6.91036 7.08513 6.91036Z" fill="#F8F8F8"/>
<path d="M3.70464 3.65952C4.31762 3.65952 4.81455 3.1626 4.81455 2.54961C4.81455 1.93662 4.31762 1.4397 3.70464 1.4397C3.09165 1.4397 2.59473 1.93662 2.59473 2.54961C2.59473 3.1626 3.09165 3.65952 3.70464 3.65952Z" fill="#F8F8F8"/>
<path d="M1.53731 7.22237L5.87281 7.2215C5.95269 7.2215 6.01726 7.15693 6.01726 7.07706C6.01726 6.80637 6.01726 6.2361 6.01726 6.08415C6.01726 4.8074 4.98217 4.14209 3.70499 4.14209C2.42781 4.14209 1.39258 4.8074 1.39258 6.08415C1.39258 6.23625 1.39272 6.80694 1.39287 7.07792C1.39287 7.15751 1.45743 7.22237 1.53731 7.22237Z" fill="#F8F8F8"/>
</svg>
