<svg width="27" height="30" viewBox="0 0 27 30" fill="none" xmlns="http://www.w3.org/2000/svg">
<path fill-rule="evenodd" clip-rule="evenodd" d="M13.125 0C9.50062 0 6.5625 2.93813 6.5625 6.5625V7.5H0.9375C0.419733 7.5 0 7.91974 0 8.4375V27.1875C0 28.7408 1.2592 30 2.8125 30H23.4375C24.9908 30 26.25 28.7408 26.25 27.1875V8.4375C26.25 7.91974 25.8303 7.5 25.3125 7.5H19.6875V6.5625C19.6875 2.93813 16.7494 0 13.125 0ZM17.8125 7.5V6.5625C17.8125 3.97367 15.7138 1.875 13.125 1.875C10.5362 1.875 8.4375 3.97367 8.4375 6.5625V7.5H17.8125ZM1.875 9.375V27.1875C1.875 27.7053 2.29473 28.125 2.8125 28.125H23.4375C23.9553 28.125 24.375 27.7053 24.375 27.1875V9.375H1.875Z" fill="#F8F8F8"/>
</svg>
