<svg width="14" height="14" viewBox="0 0 14 14" fill="none" xmlns="http://www.w3.org/2000/svg">
<path d="M7.54493 6.51373H6.46914C5.87967 6.51373 5.40809 6.04215 5.40809 5.46742C5.40809 5.18742 5.51125 4.92215 5.71756 4.71584C5.90914 4.52426 6.17441 4.40637 6.46914 4.40637H7.54493C7.98704 4.40637 8.38494 4.68636 8.5323 5.099C8.62073 5.34952 8.90073 5.46742 9.15125 5.379C9.40178 5.29058 9.53441 5.01058 9.43125 4.76005C9.13652 3.979 8.38494 3.44847 7.54493 3.44847H7.48599V2.43163C7.48599 2.16637 7.26493 1.94531 6.99967 1.94531C6.73441 1.94531 6.51336 2.16637 6.51336 2.43163V3.46321H6.45441C5.90914 3.46321 5.40809 3.66952 5.03967 4.05268C4.65651 4.43584 4.4502 4.93689 4.4502 5.48215C4.4502 6.58742 5.34914 7.48636 6.46914 7.48636H7.54493C7.82494 7.48636 8.0902 7.58952 8.29651 7.79584C8.48809 7.98742 8.60599 8.25268 8.60599 8.54742C8.60599 9.12215 8.13441 9.59373 7.55967 9.59373H6.48388C6.04178 9.59373 5.64388 9.32847 5.49651 8.91584C5.40809 8.66531 5.12809 8.54742 4.87756 8.63584C4.62704 8.72426 4.50914 9.00426 4.59756 9.25479C4.8923 10.0506 5.64388 10.5516 6.48388 10.5516H6.54283V11.5685C6.54283 11.8337 6.76388 12.0548 7.02915 12.0548C7.29441 12.0548 7.51546 11.8337 7.51546 11.5685V10.5369H7.57441C8.67967 10.5369 9.57862 9.63794 9.57862 8.53268C9.57862 7.98742 9.3723 7.48636 8.98915 7.11794C8.59125 6.73479 8.0902 6.51373 7.54493 6.51373Z" fill="#F8F8F8"/>
<path d="M7 0C3.13895 0 0 3.13895 0 7C0 10.8611 3.13895 14 7 14C10.8611 14 14 10.8611 14 7C14 3.13895 10.8611 0 7 0ZM7 13.0421C3.66947 13.0421 0.957895 10.3305 0.957895 7C0.957895 3.66947 3.66947 0.957895 7 0.957895C10.3305 0.957895 13.0421 3.66947 13.0421 7C13.0421 10.3305 10.3305 13.0421 7 13.0421Z" fill="#F8F8F8"/>
</svg>
