<svg width="30" height="25" viewBox="0 0 30 25" fill="none" xmlns="http://www.w3.org/2000/svg">
<path d="M4.49997 2.00001C4.2033 2.00001 3.91329 2.08798 3.66661 2.2528C3.41994 2.41763 3.22768 2.65189 3.11415 2.92598C3.00062 3.20007 2.97091 3.50167 3.02879 3.79264C3.08667 4.08361 3.22953 4.35089 3.43931 4.56067C3.64909 4.77045 3.91636 4.91331 4.20733 4.97119C4.49831 5.02906 4.79991 4.99936 5.074 4.88583C5.34808 4.7723 5.58235 4.58004 5.74717 4.33336C5.912 4.08669 5.99997 3.79668 5.99997 3.50001C5.99997 3.10218 5.84194 2.72065 5.56063 2.43935C5.27933 2.15804 4.8978 2.00001 4.49997 2.00001ZM4.49997 4.00001C4.40108 4.00001 4.30441 3.97068 4.22219 3.91574C4.13996 3.8608 4.07587 3.78271 4.03803 3.69135C4.00019 3.59999 3.99029 3.49945 4.00958 3.40246C4.02887 3.30547 4.07649 3.21638 4.14642 3.14645C4.21634 3.07653 4.30543 3.02891 4.40243 3.00961C4.49942 2.99032 4.59995 3.00022 4.69131 3.03807C4.78268 3.07591 4.86076 3.14 4.91571 3.22222C4.97065 3.30445 4.99997 3.40112 4.99997 3.50001C4.99997 3.63262 4.94729 3.75979 4.85352 3.85356C4.75976 3.94733 4.63258 4.00001 4.49997 4.00001Z" fill="#F8F8F8"/>
<path d="M9 2.00001C8.70333 2.00001 8.41332 2.08798 8.16665 2.2528C7.91997 2.41763 7.72771 2.65189 7.61418 2.92598C7.50065 3.20007 7.47094 3.50167 7.52882 3.79264C7.5867 4.08361 7.72956 4.35089 7.93934 4.56067C8.14912 4.77045 8.41639 4.91331 8.70736 4.97119C8.99834 5.02906 9.29994 4.99936 9.57403 4.88583C9.84811 4.7723 10.0824 4.58004 10.2472 4.33336C10.412 4.08669 10.5 3.79668 10.5 3.50001C10.5 3.10218 10.342 2.72065 10.0607 2.43935C9.77936 2.15804 9.39783 2.00001 9 2.00001ZM9 4.00001C8.90111 4.00001 8.80444 3.97068 8.72222 3.91574C8.63999 3.8608 8.5759 3.78271 8.53806 3.69135C8.50022 3.59999 8.49032 3.49945 8.50961 3.40246C8.5289 3.30547 8.57652 3.21638 8.64645 3.14645C8.71637 3.07653 8.80546 3.02891 8.90246 3.00961C8.99945 2.99032 9.09998 3.00022 9.19134 3.03807C9.28271 3.07591 9.3608 3.14 9.41574 3.22222C9.47068 3.30445 9.5 3.40112 9.5 3.50001C9.5 3.63262 9.44732 3.75979 9.35355 3.85356C9.25979 3.94733 9.13261 4.00001 9 4.00001Z" fill="#F8F8F8"/>
<path d="M13.5 2.00001C13.2034 2.00001 12.9134 2.08798 12.6667 2.2528C12.42 2.41763 12.2277 2.65189 12.1142 2.92598C12.0007 3.20007 11.971 3.50167 12.0289 3.79264C12.0867 4.08361 12.2296 4.35089 12.4394 4.56067C12.6491 4.77045 12.9164 4.91331 13.2074 4.97119C13.4984 5.02906 13.8 4.99936 14.0741 4.88583C14.3481 4.7723 14.5824 4.58004 14.7472 4.33336C14.9121 4.08669 15 3.79668 15 3.50001C15 3.10218 14.842 2.72065 14.5607 2.43935C14.2794 2.15804 13.8979 2.00001 13.5 2.00001ZM13.5 4.00001C13.4011 4.00001 13.3045 3.97068 13.2222 3.91574C13.14 3.8608 13.0759 3.78271 13.0381 3.69135C13.0002 3.59999 12.9903 3.49945 13.0096 3.40246C13.0289 3.30547 13.0766 3.21638 13.1465 3.14645C13.2164 3.07653 13.3055 3.02891 13.4025 3.00961C13.4995 2.99032 13.6 3.00022 13.6914 3.03807C13.7827 3.07591 13.8608 3.14 13.9158 3.22222C13.9707 3.30445 14 3.40112 14 3.50001C14 3.63262 13.9474 3.75979 13.8536 3.85356C13.7598 3.94733 13.6326 4.00001 13.5 4.00001Z" fill="#F8F8F8"/>
<path d="M27.5 0H2.5C1.83696 0 1.20107 0.263392 0.732233 0.732233C0.263392 1.20107 0 1.83696 0 2.5V22.5C0 23.163 0.263392 23.7989 0.732233 24.2678C1.20107 24.7366 1.83696 25 2.5 25H27.5C28.163 25 28.7989 24.7366 29.2678 24.2678C29.7366 23.7989 30 23.163 30 22.5V2.5C30 1.83696 29.7366 1.20107 29.2678 0.732233C28.7989 0.263392 28.163 0 27.5 0ZM1 2.5C1 2.10218 1.15804 1.72064 1.43934 1.43934C1.72064 1.15804 2.10218 1 2.5 1H27.5C27.8978 1 28.2794 1.15804 28.5607 1.43934C28.842 1.72064 29 2.10218 29 2.5V6H1V2.5ZM27.5 24H2.5C2.10218 24 1.72064 23.842 1.43934 23.5607C1.15804 23.2794 1 22.8978 1 22.5V7H29V22.5C29 22.8978 28.842 23.2794 28.5607 23.5607C28.2794 23.842 27.8978 24 27.5 24Z" fill="#F8F8F8"/>
<path d="M24.0001 8.99998H6.00006C5.86745 8.99998 5.74028 9.05266 5.64651 9.14642C5.55274 9.24019 5.50006 9.36737 5.50006 9.49998V21.5C5.50006 21.6326 5.55274 21.7598 5.64651 21.8535C5.74028 21.9473 5.86745 22 6.00006 22H24.0001C24.1327 22 24.2598 21.9473 24.3536 21.8535C24.4474 21.7598 24.5001 21.6326 24.5001 21.5V9.49998C24.5001 9.36737 24.4474 9.24019 24.3536 9.14642C24.2598 9.05266 24.1327 8.99998 24.0001 8.99998ZM23.5001 9.99998V12H6.50006V9.99998H23.5001ZM23.5001 15H6.50006V13H23.5001V15ZM6.50006 21V16H23.5001V21H6.50006Z" fill="#F8F8F8"/>
<path d="M13.5 18H9.00005C8.86744 18 8.74026 18.0527 8.64649 18.1464C8.55272 18.2402 8.50005 18.3674 8.50005 18.5C8.50005 18.6326 8.55272 18.7598 8.64649 18.8535C8.74026 18.9473 8.86744 19 9.00005 19H13.5C13.6327 19 13.7598 18.9473 13.8536 18.8535C13.9474 18.7598 14 18.6326 14 18.5C14 18.3674 13.9474 18.2402 13.8536 18.1464C13.7598 18.0527 13.6327 18 13.5 18Z" fill="#F8F8F8"/>
</svg>
