<svg width="30" height="30" viewBox="0 0 30 30" fill="none" xmlns="http://www.w3.org/2000/svg">
<path d="M15.9375 8.4375C15.9375 7.91973 15.5178 7.5 15 7.5C14.4822 7.5 14.0625 7.91973 14.0625 8.4375V19.5458L9.04181 15.3129C8.64596 14.9792 8.05451 15.0295 7.72076 15.4254C7.38702 15.8212 7.43738 16.4127 7.83323 16.7465L14.3957 22.2792C14.7448 22.5736 15.2552 22.5736 15.6043 22.2792L22.1668 16.7465C22.5626 16.4127 22.613 15.8212 22.2792 15.4254C21.9456 15.0295 21.3541 14.9792 20.9582 15.3129L15.9375 19.5458V8.4375Z" fill="#F8F8F8"/>
<path fill-rule="evenodd" clip-rule="evenodd" d="M15 0C6.71572 0 0 6.71572 0 15C0 23.2843 6.71572 30 15 30C23.2843 30 30 23.2843 30 15C30 6.71572 23.2843 0 15 0ZM1.875 15C1.875 7.75126 7.75126 1.875 15 1.875C22.2488 1.875 28.125 7.75126 28.125 15C28.125 22.2488 22.2488 28.125 15 28.125C7.75126 28.125 1.875 22.2488 1.875 15Z" fill="#F8F8F8"/>
</svg>
