<svg width="16" height="17" viewBox="0 0 16 17" fill="none" xmlns="http://www.w3.org/2000/svg">
<path d="M7.896 0.506222L8 0.5C8.21772 0.500029 8.42786 0.579961 8.59055 0.724636C8.75325 0.869311 8.85719 1.06867 8.88267 1.28489L8.88889 1.38889V7.61111H15.1111C15.3288 7.61114 15.539 7.69107 15.7017 7.83575C15.8644 7.98042 15.9683 8.17978 15.9938 8.396L16 8.5C16 8.71772 15.92 8.92786 15.7754 9.09055C15.6307 9.25325 15.4313 9.35719 15.2151 9.38267L15.1111 9.38889H8.88889V15.6111C8.88886 15.8288 8.80893 16.039 8.66425 16.2017C8.51958 16.3644 8.32022 16.4683 8.104 16.4938L8 16.5C7.78228 16.5 7.57214 16.42 7.40945 16.2754C7.24675 16.1307 7.14281 15.9313 7.11733 15.7151L7.11111 15.6111V9.38889H0.888889C0.67117 9.38886 0.461034 9.30893 0.298336 9.16425C0.135638 9.01958 0.0316953 8.82022 0.00622219 8.604L0 8.5C2.87205e-05 8.28228 0.0799611 8.07214 0.224636 7.90945C0.369311 7.74675 0.568666 7.64281 0.784889 7.61733L0.888889 7.61111H7.11111V1.38889C7.11114 1.17117 7.19107 0.961034 7.33575 0.798336C7.48042 0.635638 7.67978 0.531695 7.896 0.506222L8 0.5L7.896 0.506222Z" fill="#2B872B"/>
</svg>
