<svg width="30" height="32" viewBox="0 0 30 32" fill="none" xmlns="http://www.w3.org/2000/svg">
<path d="M16.5452 31.7778H16.5927H16.6403C16.6878 31.7778 16.7353 31.7778 16.7829 31.7778C16.8304 31.7778 16.9255 31.7778 16.9731 31.7303C17.0206 31.7303 17.1157 31.6828 17.1632 31.6352L29.6672 23.5528C29.8574 23.4102 30 23.22 30 22.9823V7.95851C30 7.76833 29.9525 7.6257 29.8098 7.53061C29.8098 7.48307 29.7623 7.48307 29.7623 7.48307C29.7147 7.38798 29.6672 7.34044 29.5721 7.34044L14.5008 0.0662702C14.3106 -0.028817 14.0729 -0.0288177 13.8352 0.113813L0.285262 8.19622C0.237718 8.24377 0.190174 8.24377 0.14263 8.29131C0.14263 8.29131 0.14263 8.29131 0.14263 8.33885C0.0950868 8.3864 0.0950873 8.3864 0.0475438 8.43394V8.48149C0.0475438 8.52903 0 8.57657 0 8.62412C0 8.67166 0 8.7192 0 8.76675V24.1233C0 24.4086 0.142631 24.6463 0.427892 24.7414L16.5452 31.7778ZM1.33122 9.76516L16.1173 16.4213V30.0663L1.33122 23.6479V9.76516ZM28.6212 22.697L17.496 29.8761V16.3737L28.6212 9.19464V22.697ZM14.2631 1.44503L27.9081 8.05359L23.1062 11.1439L9.22346 4.44028L14.2631 1.44503ZM7.79715 5.24852L21.775 11.9997L16.7353 15.2327L2.13946 8.62412L7.79715 5.24852Z" fill="#F8F8F8"/>
<path d="M11.6007 18.2279L4.18388 14.7572C3.85108 14.6146 3.42318 14.7572 3.28055 15.09C3.13792 15.4228 3.28055 15.8507 3.61336 15.9934L11.0302 19.464C11.1252 19.5116 11.2203 19.5116 11.3154 19.5116C11.5531 19.5116 11.8384 19.369 11.9335 19.1312C12.0761 18.7984 11.9335 18.3705 11.6007 18.2279Z" fill="#F8F8F8"/>
</svg>
