<svg width="30" height="30" viewBox="0 0 30 30" fill="none" xmlns="http://www.w3.org/2000/svg">
<path d="M26.4182 15.8166V15V14.1727L28.4812 12.3675C28.8614 12.0324 29.111 11.5735 29.1857 11.0722C29.2604 10.5708 29.1555 10.0591 28.8895 9.62765L26.3537 5.32977C26.1653 5.00341 25.8944 4.73234 25.5681 4.54375C25.2418 4.35516 24.8717 4.25568 24.4949 4.2553C24.2613 4.25351 24.0291 4.2898 23.8072 4.36274L21.1963 5.24381C20.7455 4.94426 20.2752 4.67504 19.7887 4.43796L19.2407 1.73029C19.1425 1.23561 18.8733 0.791249 18.4805 0.474991C18.0876 0.158733 17.596 -0.00926858 17.0918 0.000394794H12.0633C11.559 -0.00926858 11.0674 0.158733 10.6746 0.474991C10.2817 0.791249 10.0126 1.23561 9.91432 1.73029L9.36634 4.43796C8.87631 4.67499 8.4025 4.94419 7.94804 5.24381L5.3908 4.31977C5.16655 4.26134 4.93433 4.23957 4.70314 4.2553C4.32629 4.25568 3.95617 4.35516 3.62991 4.54375C3.30365 4.73234 3.03272 5.00341 2.8443 5.32977L0.308552 9.62765C0.0577566 10.0585 -0.0354379 10.5631 0.0449299 11.0552C0.125298 11.5472 0.374227 11.9959 0.749085 12.3246L2.77983 14.1834V15.8273L0.749085 17.6325C0.363639 17.9634 0.1079 18.4202 0.0272542 18.9218C-0.0533921 19.4233 0.0462693 19.9373 0.308552 20.3724L2.8443 24.6702C3.03272 24.9966 3.30365 25.2677 3.62991 25.4562C3.95617 25.6448 4.32629 25.7443 4.70314 25.7447C4.93667 25.7465 5.16894 25.7102 5.3908 25.6373L8.00176 24.7562C8.45254 25.0557 8.92277 25.325 9.40931 25.562L9.95729 28.2697C10.0555 28.7644 10.3247 29.2087 10.7175 29.525C11.1104 29.8413 11.602 30.0093 12.1062 29.9996H17.1777C17.682 30.0093 18.1736 29.8413 18.5664 29.525C18.9593 29.2087 19.2284 28.7644 19.3267 28.2697L19.8747 25.562C20.3647 25.325 20.8385 25.0558 21.293 24.7562L23.8932 25.6373C24.115 25.7102 24.3473 25.7465 24.5808 25.7447C24.9577 25.7443 25.3278 25.6448 25.6541 25.4562C25.9803 25.2677 26.2512 24.9966 26.4397 24.6702L28.8895 20.3724C29.1403 19.9415 29.2334 19.4369 29.1531 18.9448C29.0727 18.4528 28.8238 18.0041 28.4489 17.6754L26.4182 15.8166ZM24.4949 23.5958L20.8094 22.3494C19.9467 23.0801 18.9607 23.6514 17.8976 24.0363L17.1348 27.8936H12.0633L11.3004 24.0793C10.2457 23.6834 9.26503 23.1132 8.39931 22.3924L4.70314 23.5958L2.16739 19.2979L5.08994 16.7192C4.89127 15.6069 4.89127 14.4683 5.08994 13.3561L2.16739 10.7021L4.70314 6.40424L8.38857 7.65062C9.2513 6.91987 10.2373 6.34864 11.3004 5.96371L12.0633 2.10636H17.1348L17.8976 5.92073C18.9523 6.31659 19.933 6.88683 20.7987 7.60764L24.4949 6.40424L27.0306 10.7021L24.1081 13.2808C24.3067 14.3931 24.3067 15.5317 24.1081 16.6439L27.0306 19.2979L24.4949 23.5958Z" fill="#F8F8F8"/>
<path d="M14.6049 21.4475C13.3298 21.4475 12.0834 21.0694 11.0232 20.361C9.96302 19.6526 9.13672 18.6457 8.64877 17.4677C8.16083 16.2897 8.03316 14.9935 8.28191 13.7429C8.53066 12.4924 9.14466 11.3436 10.0463 10.442C10.9479 9.54044 12.0966 8.92644 13.3471 8.67769C14.5977 8.42893 15.8939 8.5566 17.0719 9.04455C18.25 9.53249 19.2568 10.3588 19.9652 11.419C20.6736 12.4791 21.0517 13.7256 21.0517 15.0006C21.0603 15.8496 20.8994 16.6918 20.5785 17.4779C20.2576 18.2639 19.783 18.9781 19.1827 19.5784C18.5823 20.1788 17.8682 20.6533 17.0821 20.9743C16.2961 21.2952 15.4539 21.4561 14.6049 21.4475ZM14.6049 10.7028C14.0368 10.6895 13.472 10.7916 12.9446 11.0029C12.4172 11.2143 11.9381 11.5303 11.5363 11.9321C11.1346 12.3339 10.8185 12.813 10.6072 13.3404C10.3959 13.8678 10.2937 14.4326 10.307 15.0006C10.2937 15.5687 10.3959 16.1335 10.6072 16.6609C10.8185 17.1883 11.1346 17.6674 11.5363 18.0692C11.9381 18.4709 12.4172 18.787 12.9446 18.9983C13.472 19.2096 14.0368 19.3117 14.6049 19.2985C15.1729 19.3117 15.7377 19.2096 16.2651 18.9983C16.7925 18.787 17.2716 18.4709 17.6734 18.0692C18.0751 17.6674 18.3912 17.1883 18.6025 16.6609C18.8138 16.1335 18.916 15.5687 18.9027 15.0006C18.916 14.4326 18.8138 13.8678 18.6025 13.3404C18.3912 12.813 18.0751 12.3339 17.6734 11.9321C17.2716 11.5303 16.7925 11.2143 16.2651 11.0029C15.7377 10.7916 15.1729 10.6895 14.6049 10.7028Z" fill="#F8F8F8"/>
</svg>
