<svg width="13" height="13" viewBox="0 0 13 13" fill="none" xmlns="http://www.w3.org/2000/svg">
<path d="M12.9485 3.60896L11.776 1.99684V0.274794C11.776 0.128237 11.6478 0 11.5012 0H1.55371C1.40715 0 1.27892 0.128237 1.27892 0.274794V1.99684L0.0515035 3.60896C-0.00345525 3.70056 -0.0217749 3.81047 0.0331839 3.90207C0.0698231 3.99367 0.179741 4.04863 0.271339 4.04863H1.27892V12.3108H0.67437C0.527813 12.3108 0.399576 12.439 0.399576 12.5856C0.399576 12.7321 0.527813 12.8604 0.67437 12.8604H12.3989C12.5455 12.8604 12.6737 12.7321 12.6737 12.5856C12.6737 12.439 12.5455 12.3108 12.3989 12.3108H11.7944V4.04863H12.7287C12.8386 4.04863 12.9302 3.99367 12.9668 3.90207C13.0218 3.81047 13.0035 3.70056 12.9485 3.60896ZM1.8285 0.549588H11.2448V1.81364H1.8285V0.549588ZM9.99904 3.49904H8.14876L7.96557 2.36323H9.48609L9.99904 3.49904ZM7.59918 3.49904H5.40082L5.60234 2.36323H7.41598L7.59918 3.49904ZM5.03443 2.36323L4.85124 3.49904H3.07424L3.6055 2.36323H5.03443ZM0.820926 3.49904L1.68195 2.36323H2.98264L2.45137 3.49904H0.820926ZM3.16583 12.3108V7.96902H5.29091V12.3108H3.16583ZM5.30923 7.41943H3.16583V6.37522C3.16583 5.78899 3.64214 5.31268 4.22837 5.31268C4.8146 5.31268 5.29091 5.78899 5.29091 6.37522V7.41943H5.30923ZM11.2265 12.3108H5.85881V6.37522C5.85881 5.47756 5.12603 4.76309 4.24669 4.76309C3.34903 4.76309 2.63457 5.49588 2.63457 6.37522V12.3108H1.8285V4.04863H11.2448V12.3108H11.2265ZM10.6036 3.49904L10.0906 2.36323H11.373L12.1974 3.49904H10.6036Z" fill="#F8F8F8"/>
</svg>
