<svg width="30" height="30" viewBox="0 0 30 30" fill="none" xmlns="http://www.w3.org/2000/svg">
<path d="M11.0718 13.5562C9.73008 13.5636 8.4163 13.1726 7.29693 12.4328C6.17755 11.6929 5.30295 10.6375 4.7839 9.40015C4.26485 8.16283 4.12471 6.7993 4.38124 5.48226C4.63777 4.16523 5.27941 2.95397 6.2249 2.00191C7.17039 1.04984 8.37718 0.399818 9.6924 0.13417C11.0076 -0.131477 12.3721 -0.000792817 13.613 0.509668C14.8539 1.02013 15.9153 1.8874 16.6629 3.00162C17.4105 4.11584 17.8106 5.42687 17.8125 6.76865C17.8125 8.56072 17.1038 10.2801 15.8411 11.5516C14.5783 12.8232 12.8639 13.5438 11.0718 13.5562ZM11.0718 1.55615C10.039 1.55615 9.02945 1.86241 8.17072 2.4362C7.31198 3.00998 6.64268 3.82553 6.24745 4.7797C5.85222 5.73388 5.74881 6.78382 5.95029 7.79677C6.15178 8.80971 6.64912 9.74016 7.37941 10.4705C8.1097 11.2007 9.04015 11.6981 10.0531 11.8996C11.066 12.1011 12.116 11.9976 13.0702 11.6024C14.0243 11.2072 14.8399 10.5379 15.4137 9.67915C15.9875 8.82042 16.2937 7.81082 16.2937 6.77803C16.2937 5.3931 15.7436 4.0649 14.7643 3.0856C13.785 2.10631 12.4568 1.55615 11.0718 1.55615Z" fill="#F8F8F8"/>
<path d="M1.56563 24.7687H0V23.0625C0.0142904 20.6368 0.824793 18.2829 2.30693 16.3627C3.78907 14.4424 5.86082 13.062 8.20375 12.4337C10.5467 11.8054 13.0311 11.9639 15.2752 12.8848C17.5193 13.8058 19.3989 15.4382 20.625 17.5312L19.2656 18.3093C18.2109 16.5161 16.5971 15.1184 14.6716 14.3306C12.7462 13.5427 10.6154 13.4083 8.6062 13.9478C6.59699 14.4874 4.82025 15.6712 3.54848 17.3176C2.27671 18.964 1.58015 20.9821 1.56563 23.0625V24.7687Z" fill="#F8F8F8"/>
<path d="M23.4752 15.3843H21.9095V29.9905H23.4752V15.3843Z" fill="#F8F8F8"/>
<path d="M30.0001 21.8998H15.3938V23.4655H30.0001V21.8998Z" fill="#F8F8F8"/>
</svg>
