<svg width="29" height="30" viewBox="0 0 29 30" fill="none" xmlns="http://www.w3.org/2000/svg">
<path d="M28.7463 13.2V13.1862C28.7433 13.0897 28.7181 12.9951 28.6725 12.91C28.659 12.8885 28.644 12.868 28.6275 12.8488C28.6036 12.8077 28.5751 12.7696 28.5425 12.735L23.4025 8.125V5.8075L26.855 5.86C26.9379 5.86133 27.0203 5.84614 27.0973 5.81533C27.1742 5.78451 27.2443 5.73869 27.3034 5.68052C27.3625 5.62235 27.4095 5.553 27.4415 5.47651C27.4735 5.40002 27.49 5.31792 27.49 5.235V2.66875C27.489 1.96126 27.2075 1.28303 26.7072 0.782754C26.207 0.282482 25.5287 0.000992044 24.8213 0H8.01C7.30229 0.000661333 6.62374 0.282005 6.1232 0.782313C5.62266 1.28262 5.34099 1.96104 5.34 2.66875V8.125L0.20375 12.735C0.171187 12.7696 0.14267 12.8077 0.11875 12.8488C0.102255 12.868 0.0872134 12.8885 0.07375 12.91C0.0281508 12.9951 0.00290696 13.0897 0 13.1862V13.2V29.375C0.00350491 29.4329 0.0148591 29.4901 0.0337505 29.545C0.0337505 29.5575 0.0337505 29.57 0.0337505 29.5825L0.0425005 29.5938C0.0839044 29.6979 0.152551 29.789 0.24125 29.8575C0.260565 29.8718 0.28059 29.8852 0.30125 29.8975C0.396188 29.961 0.50708 29.9965 0.62125 30H28.1213C28.2363 29.997 28.3481 29.9615 28.4438 29.8975C28.4644 29.8852 28.4844 29.8718 28.5038 29.8575C28.5925 29.789 28.6611 29.6979 28.7025 29.5938L28.7113 29.5825C28.7113 29.57 28.7113 29.5575 28.7113 29.545C28.7306 29.4902 28.7423 29.433 28.7463 29.375V13.2ZM27.4963 14.2625V28.0725L17.3263 19.915L27.4963 14.2625ZM27.0525 13.08L23.4025 15.1087V9.8L27.0525 13.08ZM26.2463 2.66875V4.6L23.4088 4.55625V2.66875C23.4088 2.29247 23.5582 1.93161 23.8243 1.66554C24.0904 1.39947 24.4512 1.25 24.8275 1.25C25.2038 1.25 25.5646 1.39947 25.8307 1.66554C26.0968 1.93161 26.2463 2.29247 26.2463 2.66875ZM8.01 1.25H22.5688C22.2982 1.67385 22.1538 2.16592 22.1525 2.66875V15.8025L16.2775 19.07L14.7663 17.8588C14.6553 17.7697 14.5173 17.7211 14.375 17.7211C14.2327 17.7211 14.0947 17.7697 13.9838 17.8588L12.4725 19.07L6.5975 15.8025V2.66875C6.59815 2.29376 6.74698 1.93422 7.01156 1.66847C7.27613 1.40272 7.63501 1.25231 8.01 1.25ZM1.24625 14.2625L11.4163 19.915L1.24625 28.0725V14.2625ZM5.34 15.1087L1.69 13.08L5.34 9.8V15.1087ZM2.39875 28.75L12.9175 20.3137L14.3713 19.1475L15.825 20.3137L26.3438 28.75H2.39875ZM10.8088 6.51625C10.8088 6.35049 10.8746 6.19152 10.9918 6.07431C11.109 5.9571 11.268 5.89125 11.4338 5.89125H19.8088C19.9745 5.89125 20.1335 5.9571 20.2507 6.07431C20.3679 6.19152 20.4338 6.35049 20.4338 6.51625C20.4338 6.68201 20.3679 6.84098 20.2507 6.95819C20.1335 7.0754 19.9745 7.14125 19.8088 7.14125H11.4338C11.268 7.14125 11.109 7.0754 10.9918 6.95819C10.8746 6.84098 10.8088 6.68201 10.8088 6.51625ZM8.30875 9.23375C8.30875 9.06799 8.3746 8.90902 8.49181 8.79181C8.60902 8.6746 8.76799 8.60875 8.93375 8.60875H19.8088C19.9745 8.60875 20.1335 8.6746 20.2507 8.79181C20.3679 8.90902 20.4338 9.06799 20.4338 9.23375C20.4338 9.39951 20.3679 9.55848 20.2507 9.67569C20.1335 9.7929 19.9745 9.85875 19.8088 9.85875H8.93375C8.76799 9.85875 8.60902 9.7929 8.49181 9.67569C8.3746 9.55848 8.30875 9.39951 8.30875 9.23375ZM8.30875 11.95C8.30875 11.7842 8.3746 11.6253 8.49181 11.5081C8.60902 11.3908 8.76799 11.325 8.93375 11.325H19.8088C19.9745 11.325 20.1335 11.3908 20.2507 11.5081C20.3679 11.6253 20.4338 11.7842 20.4338 11.95C20.4338 12.1158 20.3679 12.2747 20.2507 12.3919C20.1335 12.5092 19.9745 12.575 19.8088 12.575H8.93375C8.76799 12.575 8.60902 12.5092 8.49181 12.3919C8.3746 12.2747 8.30875 12.1158 8.30875 11.95ZM8.30875 14.6663C8.30875 14.5005 8.3746 14.3415 8.49181 14.2243C8.60902 14.1071 8.76799 14.0413 8.93375 14.0413H19.8088C19.9745 14.0413 20.1335 14.1071 20.2507 14.2243C20.3679 14.3415 20.4338 14.5005 20.4338 14.6663C20.4338 14.832 20.3679 14.991 20.2507 15.1082C20.1335 15.2254 19.9745 15.2912 19.8088 15.2913H8.93375C8.76799 15.2913 8.60902 15.2254 8.49181 15.1082C8.3746 14.991 8.30875 14.832 8.30875 14.6663Z" fill="#F8F8F8"/>
</svg>
