<svg width="30" height="22" viewBox="0 0 30 22" fill="none" xmlns="http://www.w3.org/2000/svg">
<path d="M29.8727 17.1089C30.0424 17.3465 30.0424 17.686 29.8727 17.9236C28.6167 19.6549 27.5983 20.9109 26.8515 21.6577C26.7157 21.7935 26.546 21.8614 26.3762 21.8614C26.2065 21.8614 26.0368 21.7935 25.901 21.6577C25.6294 21.3861 25.6294 20.9788 25.901 20.7072C26.4441 20.1641 27.157 19.3154 28.0396 18.1612H23.2192C21.2164 18.1612 18.5007 17.041 17.075 15.6153L15.14 13.6803C13.9859 12.5262 11.6096 11.5417 9.94625 11.5417H0.746817H0.678925C0.305516 11.5417 0 11.2362 0 10.8628C0 10.4894 0.305516 10.1839 0.678925 10.1839H0.746817H9.9802C11.6096 10.1839 13.9859 9.19943 15.14 8.04526L17.075 6.11033C18.5007 4.68458 21.1825 3.56436 23.2192 3.56436H27.9378C27.1231 2.51202 26.4102 1.69731 25.901 1.15417C25.6294 0.882602 25.6294 0.475248 25.901 0.203678C26.1726 -0.0678925 26.5799 -0.0678925 26.8515 0.203678C27.5983 0.950495 28.6167 2.17256 29.8727 3.86987C30.0424 4.1075 30.0424 4.44696 29.8727 4.68458C28.5827 6.41584 27.5983 7.63791 26.8515 8.41867C26.7157 8.55445 26.546 8.62235 26.3762 8.62235C26.2065 8.62235 26.0368 8.55445 25.901 8.41867C25.6294 8.1471 25.6294 7.73975 25.901 7.46818C26.4441 6.92504 27.157 6.07638 28.0396 4.92221H23.2192C21.5898 4.92221 19.2136 5.90665 18.0594 7.06082L16.1245 8.99576C15.3777 9.74257 14.2914 10.3876 13.1372 10.8628C14.2914 11.338 15.3777 11.983 16.1245 12.7298L18.0594 14.6648C19.2136 15.819 21.5898 16.8034 23.2192 16.8034H27.9378C27.1231 15.7511 26.4102 14.9364 25.901 14.3932C25.6294 14.1216 25.6294 13.7143 25.901 13.4427C26.1726 13.1711 26.5799 13.1711 26.8515 13.4427C27.5983 14.1895 28.6167 15.4455 29.8727 17.1089Z" fill="#F8F8F8"/>
</svg>
