<svg width="250" height="220" viewBox="0 0 250 220" fill="none" xmlns="http://www.w3.org/2000/svg">
<path d="M131.396 14.2861C131.396 14.2861 113.557 61.2182 59.0189 53.7481C4.48061 46.2779 -23.8949 121.897 28.6183 145.95C81.1314 170.003 47.5127 202.894 82.4144 216.779C122.083 232.561 133.142 171.746 161.937 175.725C225.491 184.506 263.197 161.234 244.413 133.807C211.441 85.6639 189.628 88.7253 196.732 56.0458C203.837 23.3663 150.775 -23.2213 131.396 14.2861Z" fill="#CCE2CC"/>
<path d="M114.142 60.9163C113.706 60.8886 113.296 60.6924 113.001 60.3691C112.706 60.0459 112.547 59.6207 112.559 59.183L112.681 42.6899C112.678 42.4605 112.721 42.2329 112.809 42.0207C112.896 41.8085 113.025 41.616 113.188 41.4547C113.351 41.2933 113.545 41.1665 113.758 41.0817C113.971 40.9969 114.199 40.9558 114.428 40.961L115.747 41.0199C115.975 41.035 116.198 41.0961 116.403 41.1997C116.607 41.3032 116.788 41.447 116.935 41.6224C117.083 41.7977 117.193 42.0011 117.26 42.2202C117.326 42.4393 117.348 42.6697 117.323 42.8973L115.883 59.3315C115.853 59.769 115.655 60.1781 115.331 60.4733C115.007 60.7685 114.581 60.9272 114.142 60.9163V60.9163Z" fill="#2B872B"/>
<path d="M106.43 62.7032C106.161 62.7964 105.865 62.7787 105.609 62.6542C105.353 62.5297 105.157 62.3085 105.063 62.0392L101.362 51.9581C101.255 51.6715 101.266 51.354 101.392 51.0753C101.519 50.7966 101.751 50.5795 102.037 50.4716L102.858 50.1808C102.999 50.1323 103.148 50.1136 103.297 50.1258C103.445 50.138 103.59 50.1809 103.721 50.2517C103.852 50.3225 103.967 50.4198 104.059 50.5373C104.15 50.6548 104.216 50.79 104.253 50.9344L107.133 61.3062C107.213 61.5848 107.185 61.8832 107.055 62.1421C106.924 62.401 106.701 62.6013 106.43 62.7032V62.7032Z" fill="#2B872B"/>
<path d="M102.37 68.8098C101.828 69.5511 100.668 69.5976 99.7421 68.9149L83.2927 56.7957C82.3101 56.0717 81.9708 54.813 82.5462 54.0268L83.3482 52.9308C83.9238 52.1444 85.1822 52.1468 86.1172 52.9366L101.764 66.1517C102.646 66.896 102.913 68.0685 102.37 68.8098Z" fill="#2B872B"/>
<path d="M217.914 94.9956L116.427 70.8367C112.666 69.9415 108.891 72.2645 107.996 76.0254L93.0718 138.72C92.1766 142.48 94.4996 146.255 98.2605 147.15L199.747 171.309C203.508 172.204 207.283 169.881 208.178 166.121L223.103 103.426C223.998 99.6655 221.675 95.8909 217.914 94.9956Z" fill="#AACFAA"/>
<path d="M221.692 109.344L106.586 81.9435L103.463 95.0626L218.569 122.464L221.692 109.344Z" fill="#2B872B"/>
<path d="M203.242 158.348L180.355 152.9C180.282 152.882 180.209 152.927 180.191 153L178.741 159.091C178.724 159.164 178.769 159.237 178.842 159.255L201.73 164.703C201.802 164.721 201.876 164.676 201.893 164.603L203.343 158.511C203.36 158.439 203.315 158.365 203.242 158.348Z" fill="white"/>
<path d="M159.113 62.0894L40.9113 102.808C37.2561 104.067 35.3137 108.051 36.5729 111.706L62.032 185.611C63.2911 189.267 67.275 191.209 70.9302 189.95L189.132 149.231C192.788 147.972 194.73 143.988 193.471 140.333L168.012 66.4278C166.752 62.7726 162.769 60.8303 159.113 62.0894Z" fill="#559F56"/>
<path d="M156.657 71.6435L142.869 76.3932C140.676 77.1487 139.511 79.539 140.266 81.7321L145.016 95.5199C145.772 97.7131 148.162 98.8785 150.355 98.123L164.143 93.3733C166.336 92.6178 167.501 90.2275 166.746 88.0344L161.996 74.2465C161.241 72.0534 158.85 70.888 156.657 71.6435Z" fill="white"/>
<path d="M108.365 137.72L62.5035 153.519C62.3721 153.564 62.3023 153.707 62.3476 153.839L64.6836 160.62C64.7289 160.751 64.872 160.821 65.0034 160.776L110.865 144.977C110.997 144.932 111.067 144.789 111.021 144.657L108.685 137.876C108.64 137.745 108.497 137.675 108.365 137.72Z" fill="white"/>
<path d="M132.781 144.984L67.3277 167.532C67.1963 167.577 67.1265 167.72 67.1718 167.851L69.5078 174.633C69.5531 174.764 69.6962 174.834 69.8276 174.789L135.281 152.241C135.412 152.196 135.482 152.053 135.436 151.921L133.1 145.14C133.055 145.009 132.912 144.939 132.781 144.984Z" fill="white"/>
</svg>
