<svg width="14" height="13" viewBox="0 0 14 13" fill="none" xmlns="http://www.w3.org/2000/svg">
<path d="M2.91603 0.140752L0.187924 2.72873C-0.0821464 2.98373 -0.0490725 3.30508 0.210038 3.54892L2.92699 6.11459C3.10331 6.30286 3.42857 6.30834 3.6049 6.11988C3.78123 5.93709 3.75931 5.60459 3.56635 5.44392L1.62086 3.59315H13.5253C13.7734 3.59863 13.9993 3.3771 13.9993 3.12757C13.9993 2.87825 13.7734 2.65652 13.5253 2.65652H1.61538L3.56635 0.811231C4.04034 0.262675 3.32955 -0.258287 2.91603 0.140752ZM10.4281 7.06219L12.3736 8.90747H0.474629C0.226673 8.90199 0.000635943 9.1292 0.000635943 9.37305C0.000635943 9.62238 0.226673 9.84978 0.474629 9.84411H12.3791L10.4281 11.6949C10.2075 11.9054 10.2625 12.2158 10.4117 12.3597C10.6487 12.5869 10.8968 12.5315 11.0841 12.3652L13.812 9.77737C14.0823 9.52237 14.049 9.20103 13.7899 8.95151L11.0729 6.38036C10.5878 5.92065 9.9541 6.61324 10.4281 7.06219Z" fill="#F8F8F8"/>
</svg>
