<svg width="30" height="23" viewBox="0 0 30 23" fill="none" xmlns="http://www.w3.org/2000/svg">
<path fill-rule="evenodd" clip-rule="evenodd" d="M4.6875 0C2.09867 0 0 2.09867 0 4.6875V17.8125C0 20.4013 2.09867 22.5 4.6875 22.5H25.3125C27.9013 22.5 30 20.4013 30 17.8125V4.6875C30 2.09867 27.9013 0 25.3125 0H4.6875ZM28.125 5.625V4.6875C28.125 3.1342 26.8658 1.875 25.3125 1.875H4.6875C3.1342 1.875 1.875 3.1342 1.875 4.6875V5.625H28.125ZM1.875 7.5V9.375H28.125V7.5H1.875ZM28.125 11.25H1.875V17.8125C1.875 19.3658 3.1342 20.625 4.6875 20.625H25.3125C26.8658 20.625 28.125 19.3658 28.125 17.8125V11.25Z" fill="#F8F8F8"/>
</svg>
