<svg width="14" height="15" viewBox="0 0 14 15" fill="none" xmlns="http://www.w3.org/2000/svg">
<path d="M6.99972 2.93835C4.7528 2.93835 2.93799 4.75317 2.93799 7.00008C2.93799 9.247 4.7528 11.0618 6.99972 11.0618C9.24663 11.0618 11.0614 9.247 11.0614 7.00008C11.0614 4.75317 9.24663 2.93835 6.99972 2.93835ZM6.99972 10.1976C5.22811 10.1976 3.80219 8.77169 3.80219 7.00008C3.80219 5.22848 5.22811 3.80255 6.99972 3.80255C8.77132 3.80255 10.1972 5.22848 10.1972 7.00008C10.1972 8.72848 8.77132 10.1976 6.99972 10.1976Z" fill="#F8F8F8"/>
<path d="M10.7593 12.7037L11.1481 11.2346L12.6173 10.8889C12.7469 10.8457 12.8333 10.8025 12.8765 10.716C12.9198 10.6296 12.963 10.5 12.9198 10.3704L12.5309 8.51234L13.8704 7.12963C13.9568 7.04321 14 6.95679 14 6.82716C14 6.69753 13.9568 6.61111 13.8704 6.52469L12.6605 5.35802L13.0926 3.71605C13.1358 3.5 13.0062 3.24074 12.7901 3.19753L11.2778 2.85185L10.9321 1.38272C10.8889 1.16667 10.6296 0.993827 10.4136 1.03704L8.55556 1.46914L7.17284 0.12963C7 -0.0432099 6.74074 -0.0432099 6.5679 0.12963L5.40124 1.33951L3.75926 0.907407C3.54321 0.864197 3.28395 0.993827 3.24074 1.20988L2.85185 2.67901L1.38272 3.02469C1.25309 3.0679 1.16667 3.11111 1.12346 3.19753C1.08025 3.28395 1.03704 3.41358 1.08025 3.54321L1.46913 5.40123L0.129629 6.78395C0.0432095 6.87037 0 6.95679 0 7.08642C0 7.21605 0.0432095 7.30247 0.129629 7.38889L1.33951 8.55556L0.907407 10.1975C0.864197 10.3272 0.907408 10.4136 0.950618 10.5432C0.993828 10.6296 1.12346 10.716 1.20988 10.7593L2.67901 11.1481L3.02469 12.6173C3.0679 12.8333 3.32716 13.0062 3.54321 12.963L5.40124 12.5741L6.78395 13.9136C6.87037 14 6.95679 14.0432 7.08642 14.0432C7.21605 14.0432 7.30247 14 7.38889 13.9136L8.55556 12.7037L10.1975 13.1358C10.4568 13.0926 10.6728 12.963 10.7593 12.7037ZM8.55556 11.7099C8.42593 11.6667 8.25309 11.7099 8.12346 11.8395L7.08642 12.9198L5.87654 11.7099C5.79012 11.6235 5.7037 11.5802 5.57407 11.5802C5.53086 11.5802 5.53087 11.5802 5.48766 11.5802L3.80247 11.9691L3.5 10.6728C3.45679 10.5 3.32716 10.3704 3.19753 10.3272L1.90123 9.98148L2.29012 8.51234C2.33333 8.38272 2.29012 8.20988 2.16049 8.08025L1.08025 7.04321L2.29012 5.83333C2.37654 5.74691 2.41975 5.57407 2.41975 5.44444L2.03086 3.75926L3.32716 3.45679C3.5 3.41358 3.62963 3.28395 3.67284 3.15432L4.01852 1.85802L5.48766 2.24691C5.61728 2.29012 5.79012 2.24691 5.91975 2.11728L6.95679 1.03704L8.16667 2.24691C8.25309 2.33333 8.42593 2.37654 8.55556 2.37654L10.2407 2.03086L10.5432 3.32716C10.5864 3.5 10.7161 3.62963 10.8457 3.67284L12.142 4.01852L11.7099 5.44444C11.6667 5.57407 11.7099 5.74691 11.8395 5.87654L12.9198 6.91358L11.7099 8.12346C11.6235 8.20988 11.5802 8.38272 11.5802 8.51234L12.0123 10.1975L10.7161 10.5C10.5432 10.5432 10.4136 10.6728 10.3704 10.8025L10.0247 12.0988L8.55556 11.7099Z" fill="#F8F8F8"/>
<path d="M9.24691 5.61735C9.07407 5.44451 8.81481 5.4013 8.64197 5.57414L6.04938 7.77785L5.31481 6.61118C5.18518 6.39513 4.92592 6.35192 4.70987 6.48155C4.49382 6.61118 4.45061 6.87044 4.58024 7.08649L5.57407 8.68525C5.66049 8.77167 5.74691 8.85809 5.87654 8.9013C6.00617 8.9013 6.1358 8.9013 6.22222 8.81488L9.2037 6.30871C9.37654 6.09266 9.41975 5.8334 9.24691 5.61735Z" fill="#F8F8F8"/>
</svg>
